%TF.GenerationSoftware,KiCad,Pcbnew,10.0.4*%
%TF.CreationDate,2026-10-05T16:13:15+05:00*%
%TF.ProjectId,PWR_MOD,5057525f-4d4f-4442-9e6b-696361645f70,rev?*%
%TF.SameCoordinates,Original*%
%TF.FileFunction,Soldermask,Bot*%
%TF.FilePolarity,Negative*%
%FSLAX46Y46*%
G04 Gerber Fmt 4.6, Leading zero omitted, Abs format (unit mm)*
G04 Created by KiCad (PCBNEW 10.0.4) date 2026-10-05 16:13:15*
%MOMM*%
%LPD*%
G01*
G04 APERTURE LIST*
G04 Aperture macros list*
%AMRoundRect*
0 Rectangle with rounded corners*
0 $1 Rounding radius*
0 $2 $3 $4 $5 $6 $7 $8 $9 X,Y pos of 4 corners*
0 Add a 4 corners polygon primitive as box body*
4,1,4,$2,$3,$4,$5,$6,$7,$8,$9,$2,$3,0*
0 Add four circle primitives for the rounded corners*
1,1,$1+$1,$2,$3*
1,1,$1+$1,$4,$5*
1,1,$1+$1,$6,$7*
1,1,$1+$1,$8,$9*
0 Add four rect primitives between the rounded corners*
20,1,$1+$1,$2,$3,$4,$5,0*
20,1,$1+$1,$4,$5,$6,$7,0*
20,1,$1+$1,$6,$7,$8,$9,0*
20,1,$1+$1,$8,$9,$2,$3,0*%
%AMFreePoly0*
4,1,33,0.261256,0.861246,0.424257,0.793729,0.570954,0.695709,0.695709,0.570954,0.793729,0.424257,0.861246,0.261256,0.895666,0.088215,0.895666,-0.088215,0.861246,-0.261256,0.793729,-0.424257,0.695709,-0.570954,0.570954,-0.695709,0.424257,-0.793729,0.261256,-0.861246,0.088215,-0.895666,-0.088215,-0.895666,-0.261256,-0.861246,-0.424257,-0.793729,-0.570954,-0.695709,-0.695709,-0.570954,
-0.793729,-0.424257,-0.861246,-0.261256,-0.895666,-0.088215,-0.895666,0.088215,-0.861246,0.261256,-0.793729,0.424257,-0.695709,0.570954,-0.570954,0.695709,-0.424257,0.793729,-0.261256,0.861246,-0.088215,0.895666,0.088215,0.895666,0.261256,0.861246,0.261256,0.861246,$1*%
G04 Aperture macros list end*
%ADD10R,1.600000X1.600000*%
%ADD11O,1.600000X1.600000*%
%ADD12C,1.600000*%
%ADD13R,1.100000X1.800000*%
%ADD14RoundRect,0.275000X-0.275000X-0.625000X0.275000X-0.625000X0.275000X0.625000X-0.275000X0.625000X0*%
%ADD15R,1.700000X1.700000*%
%ADD16C,1.700000*%
%ADD17R,1.500000X1.500000*%
%ADD18O,1.500000X1.500000*%
%ADD19R,2.000000X4.600000*%
%ADD20O,2.000000X4.200000*%
%ADD21O,4.200000X2.000000*%
%ADD22C,0.650000*%
%ADD23O,2.100000X1.000000*%
%ADD24O,1.800000X1.000000*%
%ADD25O,2.500000X1.600000*%
%ADD26O,7.000000X3.500000*%
%ADD27C,1.800000*%
%ADD28FreePoly0,0.000000*%
%ADD29RoundRect,0.170000X-0.680000X-0.680000X0.680000X-0.680000X0.680000X0.680000X-0.680000X0.680000X0*%
%ADD30RoundRect,0.250000X0.600000X0.600000X-0.600000X0.600000X-0.600000X-0.600000X0.600000X-0.600000X0*%
%ADD31RoundRect,0.249999X0.850001X-0.850001X0.850001X0.850001X-0.850001X0.850001X-0.850001X-0.850001X0*%
%ADD32C,2.200000*%
%ADD33RoundRect,0.250000X-0.950000X-0.550000X0.950000X-0.550000X0.950000X0.550000X-0.950000X0.550000X0*%
%ADD34O,2.400000X1.600000*%
%ADD35RoundRect,0.250000X-0.337500X-0.475000X0.337500X-0.475000X0.337500X0.475000X-0.337500X0.475000X0*%
%ADD36RoundRect,0.250000X-0.350000X-0.450000X0.350000X-0.450000X0.350000X0.450000X-0.350000X0.450000X0*%
%ADD37RoundRect,0.250000X-0.475000X0.337500X-0.475000X-0.337500X0.475000X-0.337500X0.475000X0.337500X0*%
%ADD38RoundRect,0.250000X0.475000X-0.337500X0.475000X0.337500X-0.475000X0.337500X-0.475000X-0.337500X0*%
%ADD39RoundRect,0.250000X0.350000X0.450000X-0.350000X0.450000X-0.350000X-0.450000X0.350000X-0.450000X0*%
%ADD40RoundRect,0.250000X-0.450000X0.350000X-0.450000X-0.350000X0.450000X-0.350000X0.450000X0.350000X0*%
%ADD41RoundRect,0.250000X-0.574524X-0.097227X-0.097227X-0.574524X0.574524X0.097227X0.097227X0.574524X0*%
%ADD42C,1.000000*%
%ADD43RoundRect,0.150000X-0.725000X-0.150000X0.725000X-0.150000X0.725000X0.150000X-0.725000X0.150000X0*%
%ADD44RoundRect,0.250000X0.574524X0.097227X0.097227X0.574524X-0.574524X-0.097227X-0.097227X-0.574524X0*%
%ADD45RoundRect,0.250000X0.337500X0.475000X-0.337500X0.475000X-0.337500X-0.475000X0.337500X-0.475000X0*%
%ADD46RoundRect,0.150000X0.825000X0.150000X-0.825000X0.150000X-0.825000X-0.150000X0.825000X-0.150000X0*%
%ADD47RoundRect,0.250000X-0.097227X0.574524X-0.574524X0.097227X0.097227X-0.574524X0.574524X-0.097227X0*%
%ADD48RoundRect,0.250000X0.900000X-1.500000X0.900000X1.500000X-0.900000X1.500000X-0.900000X-1.500000X0*%
%ADD49RoundRect,0.250000X0.565685X0.070711X0.070711X0.565685X-0.565685X-0.070711X-0.070711X-0.565685X0*%
%ADD50RoundRect,0.250000X0.450000X-0.350000X0.450000X0.350000X-0.450000X0.350000X-0.450000X-0.350000X0*%
%ADD51RoundRect,0.249999X-0.850001X0.850001X-0.850001X-0.850001X0.850001X-0.850001X0.850001X0.850001X0*%
G04 APERTURE END LIST*
D10*
%TO.C,A1*%
X93060000Y-142140000D03*
D11*
X95600000Y-142140000D03*
X98140000Y-142140000D03*
X100680000Y-142140000D03*
X103220000Y-142140000D03*
X105760000Y-142140000D03*
X108300000Y-142140000D03*
X110840000Y-142140000D03*
X110840000Y-129440000D03*
X108300000Y-129440000D03*
X105760000Y-129440000D03*
X103220000Y-129440000D03*
X100680000Y-129440000D03*
X98140000Y-129440000D03*
X95600000Y-129440000D03*
X93060000Y-129440000D03*
%TD*%
D12*
%TO.C,C3*%
X127400000Y-69450000D03*
X127400000Y-66950000D03*
%TD*%
D13*
%TO.C,U9*%
X171310000Y-99700000D03*
D14*
X172580000Y-97630000D03*
X173850000Y-99700000D03*
%TD*%
D12*
%TO.C,C29*%
X185850000Y-116400000D03*
X185850000Y-118900000D03*
%TD*%
D15*
%TO.C,PWR_DC1*%
X172850000Y-89220000D03*
D16*
X172850000Y-91760000D03*
X172850000Y-94300000D03*
%TD*%
D17*
%TO.C,DC::DC1*%
X180650000Y-83500000D03*
D18*
X180650000Y-86040000D03*
X180650000Y-91120000D03*
X180650000Y-93660000D03*
X180650000Y-96200000D03*
%TD*%
D15*
%TO.C,GAIN1*%
X151295000Y-142050000D03*
D16*
X153835000Y-142050000D03*
X156375000Y-142050000D03*
%TD*%
D19*
%TO.C,J1*%
X104700000Y-58200000D03*
D20*
X98400000Y-58200000D03*
D21*
X101800000Y-63000000D03*
%TD*%
D15*
%TO.C,J11*%
X92250000Y-79260000D03*
D16*
X92250000Y-81800000D03*
X92250000Y-84340000D03*
%TD*%
D12*
%TO.C,C2*%
X108150000Y-69450000D03*
X108150000Y-66950000D03*
%TD*%
D15*
%TO.C,18b20*%
X157570000Y-79450000D03*
D16*
X160110000Y-79450000D03*
X162650000Y-79450000D03*
%TD*%
D12*
%TO.C,C15*%
X137400000Y-56200000D03*
X137400000Y-58700000D03*
%TD*%
%TO.C,R19*%
X187900000Y-88210000D03*
X187900000Y-103450000D03*
%TD*%
D22*
%TO.C,J7*%
X193650000Y-61520000D03*
X193650000Y-55740000D03*
D23*
X193150000Y-62950000D03*
D24*
X197330000Y-62950000D03*
D23*
X193150000Y-54310000D03*
D24*
X197330000Y-54310000D03*
%TD*%
D15*
%TO.C,GAIN2*%
X151295000Y-138250000D03*
D16*
X153835000Y-138250000D03*
X156375000Y-138250000D03*
%TD*%
D12*
%TO.C,L3*%
X198650000Y-124320000D03*
X198650000Y-109080000D03*
%TD*%
D25*
%TO.C,J5*%
X187900000Y-135100000D03*
D26*
X192980000Y-130020000D03*
D25*
X187900000Y-132560000D03*
D26*
X192980000Y-140180000D03*
%TD*%
D15*
%TO.C,J6*%
X118350000Y-129780000D03*
D16*
X118350000Y-132320000D03*
X118350000Y-134860000D03*
X118350000Y-137400000D03*
%TD*%
D27*
%TO.C,DD1*%
X146002000Y-103159800D03*
X146002000Y-100619800D03*
X146002000Y-98079800D03*
X146002000Y-105699800D03*
X146002000Y-95539800D03*
X146002000Y-92999800D03*
D28*
X146002000Y-90459800D03*
D27*
X163782000Y-90459800D03*
X163782000Y-92999800D03*
X163782000Y-95539800D03*
X163782000Y-98079800D03*
X163782000Y-100619800D03*
X163782000Y-105699800D03*
X146002000Y-108239800D03*
X163782000Y-103159800D03*
X163782000Y-108239800D03*
X163782000Y-110779800D03*
X146002000Y-110779800D03*
%TD*%
D12*
%TO.C,C20*%
X174250000Y-72700000D03*
X176750000Y-72700000D03*
%TD*%
%TO.C,C13*%
X137400000Y-65950000D03*
X137400000Y-63450000D03*
%TD*%
D15*
%TO.C,J4*%
X114350000Y-137400000D03*
D16*
X114350000Y-134860000D03*
X114350000Y-132320000D03*
X114350000Y-129780000D03*
%TD*%
D15*
%TO.C,J3*%
X139150000Y-92620000D03*
D16*
X139150000Y-95160000D03*
X139150000Y-97700000D03*
%TD*%
D15*
%TO.C,DHT22*%
X168850000Y-79450000D03*
D16*
X171390000Y-79450000D03*
X173930000Y-79450000D03*
%TD*%
D15*
%TO.C,BAT1*%
X102900000Y-109940000D03*
D16*
X102900000Y-107400000D03*
X102900000Y-104860000D03*
%TD*%
D29*
%TO.C,SSD1306*%
X153530000Y-85200000D03*
D16*
X156070000Y-85200000D03*
X158610000Y-85200000D03*
X161150000Y-85200000D03*
%TD*%
D10*
%TO.C,A2*%
X122150000Y-142000000D03*
D11*
X124690000Y-142000000D03*
X127230000Y-142000000D03*
X129770000Y-142000000D03*
X132310000Y-142000000D03*
X134850000Y-142000000D03*
X137390000Y-142000000D03*
X139930000Y-142000000D03*
X139930000Y-129300000D03*
X137390000Y-129300000D03*
X134850000Y-129300000D03*
X132310000Y-129300000D03*
X129770000Y-129300000D03*
X127230000Y-129300000D03*
X124690000Y-129300000D03*
X122150000Y-129300000D03*
%TD*%
D30*
%TO.C,J2*%
X96650000Y-116550000D03*
D16*
X94110000Y-116550000D03*
X96650000Y-114010000D03*
X94110000Y-114010000D03*
X96650000Y-111470000D03*
X94110000Y-111470000D03*
X96650000Y-108930000D03*
X94110000Y-108930000D03*
X96650000Y-106390000D03*
X94110000Y-106390000D03*
X96650000Y-103850000D03*
X94110000Y-103850000D03*
X96650000Y-101310000D03*
X94110000Y-101310000D03*
X96650000Y-98770000D03*
X94110000Y-98770000D03*
X96650000Y-96230000D03*
X94110000Y-96230000D03*
X96650000Y-93690000D03*
X94110000Y-93690000D03*
%TD*%
D31*
%TO.C,D11*%
X195050000Y-121380000D03*
D32*
X195050000Y-111220000D03*
%TD*%
D12*
%TO.C,C17*%
X193150000Y-96700000D03*
X193150000Y-94200000D03*
%TD*%
%TO.C,R20*%
X184150000Y-88200000D03*
X184150000Y-103440000D03*
%TD*%
D33*
%TO.C,U5*%
X132180000Y-117950000D03*
D34*
X132180000Y-120490000D03*
X132180000Y-123030000D03*
X132180000Y-125570000D03*
X139800000Y-125570000D03*
X139800000Y-123030000D03*
X139800000Y-120490000D03*
X139800000Y-117950000D03*
%TD*%
D12*
%TO.C,L2*%
X198400000Y-103450000D03*
X198400000Y-88210000D03*
%TD*%
D35*
%TO.C,C19*%
X150012500Y-114300000D03*
X152087500Y-114300000D03*
%TD*%
D36*
%TO.C,R35*%
X188450000Y-108900000D03*
X190450000Y-108900000D03*
%TD*%
D37*
%TO.C,C51*%
X183850000Y-116462500D03*
X183850000Y-118537500D03*
%TD*%
D38*
%TO.C,C4*%
X125150000Y-69237500D03*
X125150000Y-67162500D03*
%TD*%
D37*
%TO.C,C50*%
X177050000Y-136262500D03*
X177050000Y-138337500D03*
%TD*%
D39*
%TO.C,R80*%
X105150000Y-139600000D03*
X103150000Y-139600000D03*
%TD*%
D40*
%TO.C,R84*%
X108450000Y-137600000D03*
X108450000Y-139600000D03*
%TD*%
D41*
%TO.C,C45*%
X118866377Y-116916377D03*
X120333623Y-118383623D03*
%TD*%
D40*
%TO.C,R23*%
X134050000Y-109350000D03*
X134050000Y-111350000D03*
%TD*%
%TO.C,R8*%
X99600000Y-92750000D03*
X99600000Y-94750000D03*
%TD*%
D39*
%TO.C,R87*%
X94850000Y-137500000D03*
X92850000Y-137500000D03*
%TD*%
D42*
%TO.C,Y2*%
X108902674Y-113542338D03*
X107700592Y-112340256D03*
%TD*%
D39*
%TO.C,R59*%
X100850000Y-85550000D03*
X98850000Y-85550000D03*
%TD*%
D43*
%TO.C,U15*%
X96175000Y-83705000D03*
X96175000Y-82435000D03*
X96175000Y-81165000D03*
X96175000Y-79895000D03*
X101325000Y-79895000D03*
X101325000Y-81165000D03*
X101325000Y-82435000D03*
X101325000Y-83705000D03*
%TD*%
D37*
%TO.C,C59*%
X180450000Y-129662500D03*
X180450000Y-131737500D03*
%TD*%
D44*
%TO.C,C48*%
X117883623Y-112033623D03*
X116416377Y-110566377D03*
%TD*%
D36*
%TO.C,R83*%
X103850000Y-134100000D03*
X105850000Y-134100000D03*
%TD*%
%TO.C,R7*%
X94350000Y-90700000D03*
X96350000Y-90700000D03*
%TD*%
%TO.C,R65*%
X178650000Y-99700000D03*
X180650000Y-99700000D03*
%TD*%
D31*
%TO.C,D5*%
X198400000Y-101280000D03*
D32*
X198400000Y-91120000D03*
%TD*%
D36*
%TO.C,R86*%
X103850000Y-136100000D03*
X105850000Y-136100000D03*
%TD*%
D45*
%TO.C,C49*%
X108637500Y-102700000D03*
X106562500Y-102700000D03*
%TD*%
D38*
%TO.C,C14*%
X139650000Y-65775000D03*
X139650000Y-63700000D03*
%TD*%
D46*
%TO.C,Q1*%
X189375000Y-82045000D03*
X189375000Y-83315000D03*
X189375000Y-84585000D03*
X189375000Y-85855000D03*
X184425000Y-85855000D03*
X184425000Y-84585000D03*
X184425000Y-83315000D03*
X184425000Y-82045000D03*
%TD*%
D40*
%TO.C,R96*%
X139950000Y-137100000D03*
X139950000Y-139100000D03*
%TD*%
D39*
%TO.C,R81*%
X134350000Y-139100000D03*
X132350000Y-139100000D03*
%TD*%
D47*
%TO.C,C12*%
X108200000Y-116900000D03*
X106732754Y-118367246D03*
%TD*%
D38*
%TO.C,C22*%
X176250000Y-99737500D03*
X176250000Y-97662500D03*
%TD*%
D37*
%TO.C,C44*%
X129850000Y-105612500D03*
X129850000Y-107687500D03*
%TD*%
%TO.C,C30*%
X179650000Y-137462500D03*
X179650000Y-139537500D03*
%TD*%
D40*
%TO.C,R95*%
X137450000Y-137100000D03*
X137450000Y-139100000D03*
%TD*%
%TO.C,R3*%
X99350000Y-115800000D03*
X99350000Y-117800000D03*
%TD*%
D37*
%TO.C,C60*%
X182650000Y-129662500D03*
X182650000Y-131737500D03*
%TD*%
D48*
%TO.C,D3*%
X104900000Y-79600000D03*
X104900000Y-74200000D03*
%TD*%
D39*
%TO.C,R94*%
X124150000Y-139500000D03*
X122150000Y-139500000D03*
%TD*%
D47*
%TO.C,C11*%
X104433623Y-112966377D03*
X102966377Y-114433623D03*
%TD*%
D49*
%TO.C,R16*%
X111500000Y-111500000D03*
X110085786Y-110085786D03*
%TD*%
D50*
%TO.C,R74*%
X177450000Y-131500000D03*
X177450000Y-129500000D03*
%TD*%
D38*
%TO.C,C58*%
X170650000Y-129937500D03*
X170650000Y-127862500D03*
%TD*%
D36*
%TO.C,R97*%
X132950000Y-133800000D03*
X134950000Y-133800000D03*
%TD*%
%TO.C,R98*%
X132950000Y-135900000D03*
X134950000Y-135900000D03*
%TD*%
D45*
%TO.C,C8*%
X125237500Y-106750000D03*
X123162500Y-106750000D03*
%TD*%
D38*
%TO.C,C57*%
X172850000Y-129937500D03*
X172850000Y-127862500D03*
%TD*%
D51*
%TO.C,D8*%
X198650000Y-111620000D03*
D32*
X198650000Y-121780000D03*
%TD*%
D38*
%TO.C,C18*%
X190900000Y-96487500D03*
X190900000Y-94412500D03*
%TD*%
D40*
%TO.C,R85*%
X110750000Y-137600000D03*
X110750000Y-139600000D03*
%TD*%
D37*
%TO.C,C6*%
X129050000Y-122862500D03*
X129050000Y-124937500D03*
%TD*%
D38*
%TO.C,C25*%
X171250000Y-108137500D03*
X171250000Y-106062500D03*
%TD*%
D39*
%TO.C,R99*%
X124150000Y-137300000D03*
X122150000Y-137300000D03*
%TD*%
%TO.C,R82*%
X94850000Y-139700000D03*
X92850000Y-139700000D03*
%TD*%
D50*
%TO.C,R22*%
X129700000Y-115500000D03*
X129700000Y-113500000D03*
%TD*%
D35*
%TO.C,C43*%
X116562500Y-94850000D03*
X118637500Y-94850000D03*
%TD*%
D37*
%TO.C,C16*%
X139650000Y-56450000D03*
X139650000Y-58525000D03*
%TD*%
D45*
%TO.C,C7*%
X118887500Y-100200000D03*
X116812500Y-100200000D03*
%TD*%
D36*
%TO.C,R61*%
X98750000Y-78100000D03*
X100750000Y-78100000D03*
%TD*%
D37*
%TO.C,C21*%
X176850000Y-77062500D03*
X176850000Y-79137500D03*
%TD*%
D38*
%TO.C,C1*%
X110650000Y-69275000D03*
X110650000Y-67200000D03*
%TD*%
M02*
