%TF.GenerationSoftware,KiCad,Pcbnew,10.0.4*%
%TF.CreationDate,2026-10-05T16:13:15+05:00*%
%TF.ProjectId,PWR_MOD,5057525f-4d4f-4442-9e6b-696361645f70,rev?*%
%TF.SameCoordinates,Original*%
%TF.FileFunction,Legend,Bot*%
%TF.FilePolarity,Positive*%
%FSLAX46Y46*%
G04 Gerber Fmt 4.6, Leading zero omitted, Abs format (unit mm)*
G04 Created by KiCad (PCBNEW 10.0.4) date 2026-10-05 16:13:15*
%MOMM*%
%LPD*%
G01*
G04 APERTURE LIST*
%ADD10C,0.150000*%
%ADD11C,0.120000*%
G04 APERTURE END LIST*
D10*
X151742857Y-112959580D02*
X151790476Y-113007200D01*
X151790476Y-113007200D02*
X151933333Y-113054819D01*
X151933333Y-113054819D02*
X152028571Y-113054819D01*
X152028571Y-113054819D02*
X152171428Y-113007200D01*
X152171428Y-113007200D02*
X152266666Y-112911961D01*
X152266666Y-112911961D02*
X152314285Y-112816723D01*
X152314285Y-112816723D02*
X152361904Y-112626247D01*
X152361904Y-112626247D02*
X152361904Y-112483390D01*
X152361904Y-112483390D02*
X152314285Y-112292914D01*
X152314285Y-112292914D02*
X152266666Y-112197676D01*
X152266666Y-112197676D02*
X152171428Y-112102438D01*
X152171428Y-112102438D02*
X152028571Y-112054819D01*
X152028571Y-112054819D02*
X151933333Y-112054819D01*
X151933333Y-112054819D02*
X151790476Y-112102438D01*
X151790476Y-112102438D02*
X151742857Y-112150057D01*
X150790476Y-113054819D02*
X151361904Y-113054819D01*
X151076190Y-113054819D02*
X151076190Y-112054819D01*
X151076190Y-112054819D02*
X151171428Y-112197676D01*
X151171428Y-112197676D02*
X151266666Y-112292914D01*
X151266666Y-112292914D02*
X151361904Y-112340533D01*
X150314285Y-113054819D02*
X150123809Y-113054819D01*
X150123809Y-113054819D02*
X150028571Y-113007200D01*
X150028571Y-113007200D02*
X149980952Y-112959580D01*
X149980952Y-112959580D02*
X149885714Y-112816723D01*
X149885714Y-112816723D02*
X149838095Y-112626247D01*
X149838095Y-112626247D02*
X149838095Y-112245295D01*
X149838095Y-112245295D02*
X149885714Y-112150057D01*
X149885714Y-112150057D02*
X149933333Y-112102438D01*
X149933333Y-112102438D02*
X150028571Y-112054819D01*
X150028571Y-112054819D02*
X150219047Y-112054819D01*
X150219047Y-112054819D02*
X150314285Y-112102438D01*
X150314285Y-112102438D02*
X150361904Y-112150057D01*
X150361904Y-112150057D02*
X150409523Y-112245295D01*
X150409523Y-112245295D02*
X150409523Y-112483390D01*
X150409523Y-112483390D02*
X150361904Y-112578628D01*
X150361904Y-112578628D02*
X150314285Y-112626247D01*
X150314285Y-112626247D02*
X150219047Y-112673866D01*
X150219047Y-112673866D02*
X150028571Y-112673866D01*
X150028571Y-112673866D02*
X149933333Y-112626247D01*
X149933333Y-112626247D02*
X149885714Y-112578628D01*
X149885714Y-112578628D02*
X149838095Y-112483390D01*
X190092857Y-111004819D02*
X190426190Y-110528628D01*
X190664285Y-111004819D02*
X190664285Y-110004819D01*
X190664285Y-110004819D02*
X190283333Y-110004819D01*
X190283333Y-110004819D02*
X190188095Y-110052438D01*
X190188095Y-110052438D02*
X190140476Y-110100057D01*
X190140476Y-110100057D02*
X190092857Y-110195295D01*
X190092857Y-110195295D02*
X190092857Y-110338152D01*
X190092857Y-110338152D02*
X190140476Y-110433390D01*
X190140476Y-110433390D02*
X190188095Y-110481009D01*
X190188095Y-110481009D02*
X190283333Y-110528628D01*
X190283333Y-110528628D02*
X190664285Y-110528628D01*
X189759523Y-110004819D02*
X189140476Y-110004819D01*
X189140476Y-110004819D02*
X189473809Y-110385771D01*
X189473809Y-110385771D02*
X189330952Y-110385771D01*
X189330952Y-110385771D02*
X189235714Y-110433390D01*
X189235714Y-110433390D02*
X189188095Y-110481009D01*
X189188095Y-110481009D02*
X189140476Y-110576247D01*
X189140476Y-110576247D02*
X189140476Y-110814342D01*
X189140476Y-110814342D02*
X189188095Y-110909580D01*
X189188095Y-110909580D02*
X189235714Y-110957200D01*
X189235714Y-110957200D02*
X189330952Y-111004819D01*
X189330952Y-111004819D02*
X189616666Y-111004819D01*
X189616666Y-111004819D02*
X189711904Y-110957200D01*
X189711904Y-110957200D02*
X189759523Y-110909580D01*
X188235714Y-110004819D02*
X188711904Y-110004819D01*
X188711904Y-110004819D02*
X188759523Y-110481009D01*
X188759523Y-110481009D02*
X188711904Y-110433390D01*
X188711904Y-110433390D02*
X188616666Y-110385771D01*
X188616666Y-110385771D02*
X188378571Y-110385771D01*
X188378571Y-110385771D02*
X188283333Y-110433390D01*
X188283333Y-110433390D02*
X188235714Y-110481009D01*
X188235714Y-110481009D02*
X188188095Y-110576247D01*
X188188095Y-110576247D02*
X188188095Y-110814342D01*
X188188095Y-110814342D02*
X188235714Y-110909580D01*
X188235714Y-110909580D02*
X188283333Y-110957200D01*
X188283333Y-110957200D02*
X188378571Y-111004819D01*
X188378571Y-111004819D02*
X188616666Y-111004819D01*
X188616666Y-111004819D02*
X188711904Y-110957200D01*
X188711904Y-110957200D02*
X188759523Y-110909580D01*
X184542857Y-115359580D02*
X184590476Y-115407200D01*
X184590476Y-115407200D02*
X184733333Y-115454819D01*
X184733333Y-115454819D02*
X184828571Y-115454819D01*
X184828571Y-115454819D02*
X184971428Y-115407200D01*
X184971428Y-115407200D02*
X185066666Y-115311961D01*
X185066666Y-115311961D02*
X185114285Y-115216723D01*
X185114285Y-115216723D02*
X185161904Y-115026247D01*
X185161904Y-115026247D02*
X185161904Y-114883390D01*
X185161904Y-114883390D02*
X185114285Y-114692914D01*
X185114285Y-114692914D02*
X185066666Y-114597676D01*
X185066666Y-114597676D02*
X184971428Y-114502438D01*
X184971428Y-114502438D02*
X184828571Y-114454819D01*
X184828571Y-114454819D02*
X184733333Y-114454819D01*
X184733333Y-114454819D02*
X184590476Y-114502438D01*
X184590476Y-114502438D02*
X184542857Y-114550057D01*
X183638095Y-114454819D02*
X184114285Y-114454819D01*
X184114285Y-114454819D02*
X184161904Y-114931009D01*
X184161904Y-114931009D02*
X184114285Y-114883390D01*
X184114285Y-114883390D02*
X184019047Y-114835771D01*
X184019047Y-114835771D02*
X183780952Y-114835771D01*
X183780952Y-114835771D02*
X183685714Y-114883390D01*
X183685714Y-114883390D02*
X183638095Y-114931009D01*
X183638095Y-114931009D02*
X183590476Y-115026247D01*
X183590476Y-115026247D02*
X183590476Y-115264342D01*
X183590476Y-115264342D02*
X183638095Y-115359580D01*
X183638095Y-115359580D02*
X183685714Y-115407200D01*
X183685714Y-115407200D02*
X183780952Y-115454819D01*
X183780952Y-115454819D02*
X184019047Y-115454819D01*
X184019047Y-115454819D02*
X184114285Y-115407200D01*
X184114285Y-115407200D02*
X184161904Y-115359580D01*
X182638095Y-115454819D02*
X183209523Y-115454819D01*
X182923809Y-115454819D02*
X182923809Y-114454819D01*
X182923809Y-114454819D02*
X183019047Y-114597676D01*
X183019047Y-114597676D02*
X183114285Y-114692914D01*
X183114285Y-114692914D02*
X183209523Y-114740533D01*
X125366666Y-65959580D02*
X125414285Y-66007200D01*
X125414285Y-66007200D02*
X125557142Y-66054819D01*
X125557142Y-66054819D02*
X125652380Y-66054819D01*
X125652380Y-66054819D02*
X125795237Y-66007200D01*
X125795237Y-66007200D02*
X125890475Y-65911961D01*
X125890475Y-65911961D02*
X125938094Y-65816723D01*
X125938094Y-65816723D02*
X125985713Y-65626247D01*
X125985713Y-65626247D02*
X125985713Y-65483390D01*
X125985713Y-65483390D02*
X125938094Y-65292914D01*
X125938094Y-65292914D02*
X125890475Y-65197676D01*
X125890475Y-65197676D02*
X125795237Y-65102438D01*
X125795237Y-65102438D02*
X125652380Y-65054819D01*
X125652380Y-65054819D02*
X125557142Y-65054819D01*
X125557142Y-65054819D02*
X125414285Y-65102438D01*
X125414285Y-65102438D02*
X125366666Y-65150057D01*
X124509523Y-65388152D02*
X124509523Y-66054819D01*
X124747618Y-65007200D02*
X124985713Y-65721485D01*
X124985713Y-65721485D02*
X124366666Y-65721485D01*
X177142857Y-140259580D02*
X177190476Y-140307200D01*
X177190476Y-140307200D02*
X177333333Y-140354819D01*
X177333333Y-140354819D02*
X177428571Y-140354819D01*
X177428571Y-140354819D02*
X177571428Y-140307200D01*
X177571428Y-140307200D02*
X177666666Y-140211961D01*
X177666666Y-140211961D02*
X177714285Y-140116723D01*
X177714285Y-140116723D02*
X177761904Y-139926247D01*
X177761904Y-139926247D02*
X177761904Y-139783390D01*
X177761904Y-139783390D02*
X177714285Y-139592914D01*
X177714285Y-139592914D02*
X177666666Y-139497676D01*
X177666666Y-139497676D02*
X177571428Y-139402438D01*
X177571428Y-139402438D02*
X177428571Y-139354819D01*
X177428571Y-139354819D02*
X177333333Y-139354819D01*
X177333333Y-139354819D02*
X177190476Y-139402438D01*
X177190476Y-139402438D02*
X177142857Y-139450057D01*
X176238095Y-139354819D02*
X176714285Y-139354819D01*
X176714285Y-139354819D02*
X176761904Y-139831009D01*
X176761904Y-139831009D02*
X176714285Y-139783390D01*
X176714285Y-139783390D02*
X176619047Y-139735771D01*
X176619047Y-139735771D02*
X176380952Y-139735771D01*
X176380952Y-139735771D02*
X176285714Y-139783390D01*
X176285714Y-139783390D02*
X176238095Y-139831009D01*
X176238095Y-139831009D02*
X176190476Y-139926247D01*
X176190476Y-139926247D02*
X176190476Y-140164342D01*
X176190476Y-140164342D02*
X176238095Y-140259580D01*
X176238095Y-140259580D02*
X176285714Y-140307200D01*
X176285714Y-140307200D02*
X176380952Y-140354819D01*
X176380952Y-140354819D02*
X176619047Y-140354819D01*
X176619047Y-140354819D02*
X176714285Y-140307200D01*
X176714285Y-140307200D02*
X176761904Y-140259580D01*
X175571428Y-139354819D02*
X175476190Y-139354819D01*
X175476190Y-139354819D02*
X175380952Y-139402438D01*
X175380952Y-139402438D02*
X175333333Y-139450057D01*
X175333333Y-139450057D02*
X175285714Y-139545295D01*
X175285714Y-139545295D02*
X175238095Y-139735771D01*
X175238095Y-139735771D02*
X175238095Y-139973866D01*
X175238095Y-139973866D02*
X175285714Y-140164342D01*
X175285714Y-140164342D02*
X175333333Y-140259580D01*
X175333333Y-140259580D02*
X175380952Y-140307200D01*
X175380952Y-140307200D02*
X175476190Y-140354819D01*
X175476190Y-140354819D02*
X175571428Y-140354819D01*
X175571428Y-140354819D02*
X175666666Y-140307200D01*
X175666666Y-140307200D02*
X175714285Y-140259580D01*
X175714285Y-140259580D02*
X175761904Y-140164342D01*
X175761904Y-140164342D02*
X175809523Y-139973866D01*
X175809523Y-139973866D02*
X175809523Y-139735771D01*
X175809523Y-139735771D02*
X175761904Y-139545295D01*
X175761904Y-139545295D02*
X175714285Y-139450057D01*
X175714285Y-139450057D02*
X175666666Y-139402438D01*
X175666666Y-139402438D02*
X175571428Y-139354819D01*
X101442857Y-140054819D02*
X101776190Y-139578628D01*
X102014285Y-140054819D02*
X102014285Y-139054819D01*
X102014285Y-139054819D02*
X101633333Y-139054819D01*
X101633333Y-139054819D02*
X101538095Y-139102438D01*
X101538095Y-139102438D02*
X101490476Y-139150057D01*
X101490476Y-139150057D02*
X101442857Y-139245295D01*
X101442857Y-139245295D02*
X101442857Y-139388152D01*
X101442857Y-139388152D02*
X101490476Y-139483390D01*
X101490476Y-139483390D02*
X101538095Y-139531009D01*
X101538095Y-139531009D02*
X101633333Y-139578628D01*
X101633333Y-139578628D02*
X102014285Y-139578628D01*
X100871428Y-139483390D02*
X100966666Y-139435771D01*
X100966666Y-139435771D02*
X101014285Y-139388152D01*
X101014285Y-139388152D02*
X101061904Y-139292914D01*
X101061904Y-139292914D02*
X101061904Y-139245295D01*
X101061904Y-139245295D02*
X101014285Y-139150057D01*
X101014285Y-139150057D02*
X100966666Y-139102438D01*
X100966666Y-139102438D02*
X100871428Y-139054819D01*
X100871428Y-139054819D02*
X100680952Y-139054819D01*
X100680952Y-139054819D02*
X100585714Y-139102438D01*
X100585714Y-139102438D02*
X100538095Y-139150057D01*
X100538095Y-139150057D02*
X100490476Y-139245295D01*
X100490476Y-139245295D02*
X100490476Y-139292914D01*
X100490476Y-139292914D02*
X100538095Y-139388152D01*
X100538095Y-139388152D02*
X100585714Y-139435771D01*
X100585714Y-139435771D02*
X100680952Y-139483390D01*
X100680952Y-139483390D02*
X100871428Y-139483390D01*
X100871428Y-139483390D02*
X100966666Y-139531009D01*
X100966666Y-139531009D02*
X101014285Y-139578628D01*
X101014285Y-139578628D02*
X101061904Y-139673866D01*
X101061904Y-139673866D02*
X101061904Y-139864342D01*
X101061904Y-139864342D02*
X101014285Y-139959580D01*
X101014285Y-139959580D02*
X100966666Y-140007200D01*
X100966666Y-140007200D02*
X100871428Y-140054819D01*
X100871428Y-140054819D02*
X100680952Y-140054819D01*
X100680952Y-140054819D02*
X100585714Y-140007200D01*
X100585714Y-140007200D02*
X100538095Y-139959580D01*
X100538095Y-139959580D02*
X100490476Y-139864342D01*
X100490476Y-139864342D02*
X100490476Y-139673866D01*
X100490476Y-139673866D02*
X100538095Y-139578628D01*
X100538095Y-139578628D02*
X100585714Y-139531009D01*
X100585714Y-139531009D02*
X100680952Y-139483390D01*
X99871428Y-139054819D02*
X99776190Y-139054819D01*
X99776190Y-139054819D02*
X99680952Y-139102438D01*
X99680952Y-139102438D02*
X99633333Y-139150057D01*
X99633333Y-139150057D02*
X99585714Y-139245295D01*
X99585714Y-139245295D02*
X99538095Y-139435771D01*
X99538095Y-139435771D02*
X99538095Y-139673866D01*
X99538095Y-139673866D02*
X99585714Y-139864342D01*
X99585714Y-139864342D02*
X99633333Y-139959580D01*
X99633333Y-139959580D02*
X99680952Y-140007200D01*
X99680952Y-140007200D02*
X99776190Y-140054819D01*
X99776190Y-140054819D02*
X99871428Y-140054819D01*
X99871428Y-140054819D02*
X99966666Y-140007200D01*
X99966666Y-140007200D02*
X100014285Y-139959580D01*
X100014285Y-139959580D02*
X100061904Y-139864342D01*
X100061904Y-139864342D02*
X100109523Y-139673866D01*
X100109523Y-139673866D02*
X100109523Y-139435771D01*
X100109523Y-139435771D02*
X100061904Y-139245295D01*
X100061904Y-139245295D02*
X100014285Y-139150057D01*
X100014285Y-139150057D02*
X99966666Y-139102438D01*
X99966666Y-139102438D02*
X99871428Y-139054819D01*
X108842857Y-136054819D02*
X109176190Y-135578628D01*
X109414285Y-136054819D02*
X109414285Y-135054819D01*
X109414285Y-135054819D02*
X109033333Y-135054819D01*
X109033333Y-135054819D02*
X108938095Y-135102438D01*
X108938095Y-135102438D02*
X108890476Y-135150057D01*
X108890476Y-135150057D02*
X108842857Y-135245295D01*
X108842857Y-135245295D02*
X108842857Y-135388152D01*
X108842857Y-135388152D02*
X108890476Y-135483390D01*
X108890476Y-135483390D02*
X108938095Y-135531009D01*
X108938095Y-135531009D02*
X109033333Y-135578628D01*
X109033333Y-135578628D02*
X109414285Y-135578628D01*
X108271428Y-135483390D02*
X108366666Y-135435771D01*
X108366666Y-135435771D02*
X108414285Y-135388152D01*
X108414285Y-135388152D02*
X108461904Y-135292914D01*
X108461904Y-135292914D02*
X108461904Y-135245295D01*
X108461904Y-135245295D02*
X108414285Y-135150057D01*
X108414285Y-135150057D02*
X108366666Y-135102438D01*
X108366666Y-135102438D02*
X108271428Y-135054819D01*
X108271428Y-135054819D02*
X108080952Y-135054819D01*
X108080952Y-135054819D02*
X107985714Y-135102438D01*
X107985714Y-135102438D02*
X107938095Y-135150057D01*
X107938095Y-135150057D02*
X107890476Y-135245295D01*
X107890476Y-135245295D02*
X107890476Y-135292914D01*
X107890476Y-135292914D02*
X107938095Y-135388152D01*
X107938095Y-135388152D02*
X107985714Y-135435771D01*
X107985714Y-135435771D02*
X108080952Y-135483390D01*
X108080952Y-135483390D02*
X108271428Y-135483390D01*
X108271428Y-135483390D02*
X108366666Y-135531009D01*
X108366666Y-135531009D02*
X108414285Y-135578628D01*
X108414285Y-135578628D02*
X108461904Y-135673866D01*
X108461904Y-135673866D02*
X108461904Y-135864342D01*
X108461904Y-135864342D02*
X108414285Y-135959580D01*
X108414285Y-135959580D02*
X108366666Y-136007200D01*
X108366666Y-136007200D02*
X108271428Y-136054819D01*
X108271428Y-136054819D02*
X108080952Y-136054819D01*
X108080952Y-136054819D02*
X107985714Y-136007200D01*
X107985714Y-136007200D02*
X107938095Y-135959580D01*
X107938095Y-135959580D02*
X107890476Y-135864342D01*
X107890476Y-135864342D02*
X107890476Y-135673866D01*
X107890476Y-135673866D02*
X107938095Y-135578628D01*
X107938095Y-135578628D02*
X107985714Y-135531009D01*
X107985714Y-135531009D02*
X108080952Y-135483390D01*
X107033333Y-135388152D02*
X107033333Y-136054819D01*
X107271428Y-135007200D02*
X107509523Y-135721485D01*
X107509523Y-135721485D02*
X106890476Y-135721485D01*
X120900306Y-117308829D02*
X120900306Y-117376173D01*
X120900306Y-117376173D02*
X120967650Y-117510860D01*
X120967650Y-117510860D02*
X121034993Y-117578203D01*
X121034993Y-117578203D02*
X121169680Y-117645547D01*
X121169680Y-117645547D02*
X121304367Y-117645547D01*
X121304367Y-117645547D02*
X121405382Y-117611875D01*
X121405382Y-117611875D02*
X121573741Y-117510860D01*
X121573741Y-117510860D02*
X121674756Y-117409845D01*
X121674756Y-117409845D02*
X121775772Y-117241486D01*
X121775772Y-117241486D02*
X121809443Y-117140471D01*
X121809443Y-117140471D02*
X121809443Y-117005784D01*
X121809443Y-117005784D02*
X121742100Y-116871097D01*
X121742100Y-116871097D02*
X121674756Y-116803753D01*
X121674756Y-116803753D02*
X121540069Y-116736410D01*
X121540069Y-116736410D02*
X121472726Y-116736410D01*
X120698276Y-116298677D02*
X120226871Y-116770081D01*
X121136008Y-116197662D02*
X120799291Y-116871097D01*
X120799291Y-116871097D02*
X120361558Y-116433364D01*
X120226871Y-115355868D02*
X120563589Y-115692585D01*
X120563589Y-115692585D02*
X120260543Y-116062974D01*
X120260543Y-116062974D02*
X120260543Y-115995631D01*
X120260543Y-115995631D02*
X120226871Y-115894616D01*
X120226871Y-115894616D02*
X120058512Y-115726257D01*
X120058512Y-115726257D02*
X119957497Y-115692585D01*
X119957497Y-115692585D02*
X119890153Y-115692585D01*
X119890153Y-115692585D02*
X119789138Y-115726257D01*
X119789138Y-115726257D02*
X119620779Y-115894616D01*
X119620779Y-115894616D02*
X119587108Y-115995631D01*
X119587108Y-115995631D02*
X119587108Y-116062974D01*
X119587108Y-116062974D02*
X119620779Y-116163990D01*
X119620779Y-116163990D02*
X119789138Y-116332348D01*
X119789138Y-116332348D02*
X119890153Y-116366020D01*
X119890153Y-116366020D02*
X119957497Y-116366020D01*
X134642857Y-108154819D02*
X134976190Y-107678628D01*
X135214285Y-108154819D02*
X135214285Y-107154819D01*
X135214285Y-107154819D02*
X134833333Y-107154819D01*
X134833333Y-107154819D02*
X134738095Y-107202438D01*
X134738095Y-107202438D02*
X134690476Y-107250057D01*
X134690476Y-107250057D02*
X134642857Y-107345295D01*
X134642857Y-107345295D02*
X134642857Y-107488152D01*
X134642857Y-107488152D02*
X134690476Y-107583390D01*
X134690476Y-107583390D02*
X134738095Y-107631009D01*
X134738095Y-107631009D02*
X134833333Y-107678628D01*
X134833333Y-107678628D02*
X135214285Y-107678628D01*
X134261904Y-107250057D02*
X134214285Y-107202438D01*
X134214285Y-107202438D02*
X134119047Y-107154819D01*
X134119047Y-107154819D02*
X133880952Y-107154819D01*
X133880952Y-107154819D02*
X133785714Y-107202438D01*
X133785714Y-107202438D02*
X133738095Y-107250057D01*
X133738095Y-107250057D02*
X133690476Y-107345295D01*
X133690476Y-107345295D02*
X133690476Y-107440533D01*
X133690476Y-107440533D02*
X133738095Y-107583390D01*
X133738095Y-107583390D02*
X134309523Y-108154819D01*
X134309523Y-108154819D02*
X133690476Y-108154819D01*
X133357142Y-107154819D02*
X132738095Y-107154819D01*
X132738095Y-107154819D02*
X133071428Y-107535771D01*
X133071428Y-107535771D02*
X132928571Y-107535771D01*
X132928571Y-107535771D02*
X132833333Y-107583390D01*
X132833333Y-107583390D02*
X132785714Y-107631009D01*
X132785714Y-107631009D02*
X132738095Y-107726247D01*
X132738095Y-107726247D02*
X132738095Y-107964342D01*
X132738095Y-107964342D02*
X132785714Y-108059580D01*
X132785714Y-108059580D02*
X132833333Y-108107200D01*
X132833333Y-108107200D02*
X132928571Y-108154819D01*
X132928571Y-108154819D02*
X133214285Y-108154819D01*
X133214285Y-108154819D02*
X133309523Y-108107200D01*
X133309523Y-108107200D02*
X133357142Y-108059580D01*
X99666666Y-91654819D02*
X99999999Y-91178628D01*
X100238094Y-91654819D02*
X100238094Y-90654819D01*
X100238094Y-90654819D02*
X99857142Y-90654819D01*
X99857142Y-90654819D02*
X99761904Y-90702438D01*
X99761904Y-90702438D02*
X99714285Y-90750057D01*
X99714285Y-90750057D02*
X99666666Y-90845295D01*
X99666666Y-90845295D02*
X99666666Y-90988152D01*
X99666666Y-90988152D02*
X99714285Y-91083390D01*
X99714285Y-91083390D02*
X99761904Y-91131009D01*
X99761904Y-91131009D02*
X99857142Y-91178628D01*
X99857142Y-91178628D02*
X100238094Y-91178628D01*
X99095237Y-91083390D02*
X99190475Y-91035771D01*
X99190475Y-91035771D02*
X99238094Y-90988152D01*
X99238094Y-90988152D02*
X99285713Y-90892914D01*
X99285713Y-90892914D02*
X99285713Y-90845295D01*
X99285713Y-90845295D02*
X99238094Y-90750057D01*
X99238094Y-90750057D02*
X99190475Y-90702438D01*
X99190475Y-90702438D02*
X99095237Y-90654819D01*
X99095237Y-90654819D02*
X98904761Y-90654819D01*
X98904761Y-90654819D02*
X98809523Y-90702438D01*
X98809523Y-90702438D02*
X98761904Y-90750057D01*
X98761904Y-90750057D02*
X98714285Y-90845295D01*
X98714285Y-90845295D02*
X98714285Y-90892914D01*
X98714285Y-90892914D02*
X98761904Y-90988152D01*
X98761904Y-90988152D02*
X98809523Y-91035771D01*
X98809523Y-91035771D02*
X98904761Y-91083390D01*
X98904761Y-91083390D02*
X99095237Y-91083390D01*
X99095237Y-91083390D02*
X99190475Y-91131009D01*
X99190475Y-91131009D02*
X99238094Y-91178628D01*
X99238094Y-91178628D02*
X99285713Y-91273866D01*
X99285713Y-91273866D02*
X99285713Y-91464342D01*
X99285713Y-91464342D02*
X99238094Y-91559580D01*
X99238094Y-91559580D02*
X99190475Y-91607200D01*
X99190475Y-91607200D02*
X99095237Y-91654819D01*
X99095237Y-91654819D02*
X98904761Y-91654819D01*
X98904761Y-91654819D02*
X98809523Y-91607200D01*
X98809523Y-91607200D02*
X98761904Y-91559580D01*
X98761904Y-91559580D02*
X98714285Y-91464342D01*
X98714285Y-91464342D02*
X98714285Y-91273866D01*
X98714285Y-91273866D02*
X98761904Y-91178628D01*
X98761904Y-91178628D02*
X98809523Y-91131009D01*
X98809523Y-91131009D02*
X98904761Y-91083390D01*
X97842857Y-138154819D02*
X98176190Y-137678628D01*
X98414285Y-138154819D02*
X98414285Y-137154819D01*
X98414285Y-137154819D02*
X98033333Y-137154819D01*
X98033333Y-137154819D02*
X97938095Y-137202438D01*
X97938095Y-137202438D02*
X97890476Y-137250057D01*
X97890476Y-137250057D02*
X97842857Y-137345295D01*
X97842857Y-137345295D02*
X97842857Y-137488152D01*
X97842857Y-137488152D02*
X97890476Y-137583390D01*
X97890476Y-137583390D02*
X97938095Y-137631009D01*
X97938095Y-137631009D02*
X98033333Y-137678628D01*
X98033333Y-137678628D02*
X98414285Y-137678628D01*
X97271428Y-137583390D02*
X97366666Y-137535771D01*
X97366666Y-137535771D02*
X97414285Y-137488152D01*
X97414285Y-137488152D02*
X97461904Y-137392914D01*
X97461904Y-137392914D02*
X97461904Y-137345295D01*
X97461904Y-137345295D02*
X97414285Y-137250057D01*
X97414285Y-137250057D02*
X97366666Y-137202438D01*
X97366666Y-137202438D02*
X97271428Y-137154819D01*
X97271428Y-137154819D02*
X97080952Y-137154819D01*
X97080952Y-137154819D02*
X96985714Y-137202438D01*
X96985714Y-137202438D02*
X96938095Y-137250057D01*
X96938095Y-137250057D02*
X96890476Y-137345295D01*
X96890476Y-137345295D02*
X96890476Y-137392914D01*
X96890476Y-137392914D02*
X96938095Y-137488152D01*
X96938095Y-137488152D02*
X96985714Y-137535771D01*
X96985714Y-137535771D02*
X97080952Y-137583390D01*
X97080952Y-137583390D02*
X97271428Y-137583390D01*
X97271428Y-137583390D02*
X97366666Y-137631009D01*
X97366666Y-137631009D02*
X97414285Y-137678628D01*
X97414285Y-137678628D02*
X97461904Y-137773866D01*
X97461904Y-137773866D02*
X97461904Y-137964342D01*
X97461904Y-137964342D02*
X97414285Y-138059580D01*
X97414285Y-138059580D02*
X97366666Y-138107200D01*
X97366666Y-138107200D02*
X97271428Y-138154819D01*
X97271428Y-138154819D02*
X97080952Y-138154819D01*
X97080952Y-138154819D02*
X96985714Y-138107200D01*
X96985714Y-138107200D02*
X96938095Y-138059580D01*
X96938095Y-138059580D02*
X96890476Y-137964342D01*
X96890476Y-137964342D02*
X96890476Y-137773866D01*
X96890476Y-137773866D02*
X96938095Y-137678628D01*
X96938095Y-137678628D02*
X96985714Y-137631009D01*
X96985714Y-137631009D02*
X97080952Y-137583390D01*
X96557142Y-137154819D02*
X95890476Y-137154819D01*
X95890476Y-137154819D02*
X96319047Y-138154819D01*
X102651829Y-118921606D02*
X102315111Y-119258324D01*
X103257920Y-118786919D02*
X102651829Y-118921606D01*
X102651829Y-118921606D02*
X102786516Y-118315515D01*
X102517142Y-118180828D02*
X102517142Y-118113484D01*
X102517142Y-118113484D02*
X102483470Y-118012469D01*
X102483470Y-118012469D02*
X102315111Y-117844110D01*
X102315111Y-117844110D02*
X102214096Y-117810438D01*
X102214096Y-117810438D02*
X102146753Y-117810438D01*
X102146753Y-117810438D02*
X102045737Y-117844110D01*
X102045737Y-117844110D02*
X101978394Y-117911454D01*
X101978394Y-117911454D02*
X101911050Y-118046141D01*
X101911050Y-118046141D02*
X101911050Y-118854263D01*
X101911050Y-118854263D02*
X101473318Y-118416530D01*
X100492857Y-87754819D02*
X100826190Y-87278628D01*
X101064285Y-87754819D02*
X101064285Y-86754819D01*
X101064285Y-86754819D02*
X100683333Y-86754819D01*
X100683333Y-86754819D02*
X100588095Y-86802438D01*
X100588095Y-86802438D02*
X100540476Y-86850057D01*
X100540476Y-86850057D02*
X100492857Y-86945295D01*
X100492857Y-86945295D02*
X100492857Y-87088152D01*
X100492857Y-87088152D02*
X100540476Y-87183390D01*
X100540476Y-87183390D02*
X100588095Y-87231009D01*
X100588095Y-87231009D02*
X100683333Y-87278628D01*
X100683333Y-87278628D02*
X101064285Y-87278628D01*
X99588095Y-86754819D02*
X100064285Y-86754819D01*
X100064285Y-86754819D02*
X100111904Y-87231009D01*
X100111904Y-87231009D02*
X100064285Y-87183390D01*
X100064285Y-87183390D02*
X99969047Y-87135771D01*
X99969047Y-87135771D02*
X99730952Y-87135771D01*
X99730952Y-87135771D02*
X99635714Y-87183390D01*
X99635714Y-87183390D02*
X99588095Y-87231009D01*
X99588095Y-87231009D02*
X99540476Y-87326247D01*
X99540476Y-87326247D02*
X99540476Y-87564342D01*
X99540476Y-87564342D02*
X99588095Y-87659580D01*
X99588095Y-87659580D02*
X99635714Y-87707200D01*
X99635714Y-87707200D02*
X99730952Y-87754819D01*
X99730952Y-87754819D02*
X99969047Y-87754819D01*
X99969047Y-87754819D02*
X100064285Y-87707200D01*
X100064285Y-87707200D02*
X100111904Y-87659580D01*
X99064285Y-87754819D02*
X98873809Y-87754819D01*
X98873809Y-87754819D02*
X98778571Y-87707200D01*
X98778571Y-87707200D02*
X98730952Y-87659580D01*
X98730952Y-87659580D02*
X98635714Y-87516723D01*
X98635714Y-87516723D02*
X98588095Y-87326247D01*
X98588095Y-87326247D02*
X98588095Y-86945295D01*
X98588095Y-86945295D02*
X98635714Y-86850057D01*
X98635714Y-86850057D02*
X98683333Y-86802438D01*
X98683333Y-86802438D02*
X98778571Y-86754819D01*
X98778571Y-86754819D02*
X98969047Y-86754819D01*
X98969047Y-86754819D02*
X99064285Y-86802438D01*
X99064285Y-86802438D02*
X99111904Y-86850057D01*
X99111904Y-86850057D02*
X99159523Y-86945295D01*
X99159523Y-86945295D02*
X99159523Y-87183390D01*
X99159523Y-87183390D02*
X99111904Y-87278628D01*
X99111904Y-87278628D02*
X99064285Y-87326247D01*
X99064285Y-87326247D02*
X98969047Y-87373866D01*
X98969047Y-87373866D02*
X98778571Y-87373866D01*
X98778571Y-87373866D02*
X98683333Y-87326247D01*
X98683333Y-87326247D02*
X98635714Y-87278628D01*
X98635714Y-87278628D02*
X98588095Y-87183390D01*
X104538094Y-84454819D02*
X104538094Y-85264342D01*
X104538094Y-85264342D02*
X104490475Y-85359580D01*
X104490475Y-85359580D02*
X104442856Y-85407200D01*
X104442856Y-85407200D02*
X104347618Y-85454819D01*
X104347618Y-85454819D02*
X104157142Y-85454819D01*
X104157142Y-85454819D02*
X104061904Y-85407200D01*
X104061904Y-85407200D02*
X104014285Y-85359580D01*
X104014285Y-85359580D02*
X103966666Y-85264342D01*
X103966666Y-85264342D02*
X103966666Y-84454819D01*
X102966666Y-85454819D02*
X103538094Y-85454819D01*
X103252380Y-85454819D02*
X103252380Y-84454819D01*
X103252380Y-84454819D02*
X103347618Y-84597676D01*
X103347618Y-84597676D02*
X103442856Y-84692914D01*
X103442856Y-84692914D02*
X103538094Y-84740533D01*
X102061904Y-84454819D02*
X102538094Y-84454819D01*
X102538094Y-84454819D02*
X102585713Y-84931009D01*
X102585713Y-84931009D02*
X102538094Y-84883390D01*
X102538094Y-84883390D02*
X102442856Y-84835771D01*
X102442856Y-84835771D02*
X102204761Y-84835771D01*
X102204761Y-84835771D02*
X102109523Y-84883390D01*
X102109523Y-84883390D02*
X102061904Y-84931009D01*
X102061904Y-84931009D02*
X102014285Y-85026247D01*
X102014285Y-85026247D02*
X102014285Y-85264342D01*
X102014285Y-85264342D02*
X102061904Y-85359580D01*
X102061904Y-85359580D02*
X102109523Y-85407200D01*
X102109523Y-85407200D02*
X102204761Y-85454819D01*
X102204761Y-85454819D02*
X102442856Y-85454819D01*
X102442856Y-85454819D02*
X102538094Y-85407200D01*
X102538094Y-85407200D02*
X102585713Y-85359580D01*
X180842857Y-128559580D02*
X180890476Y-128607200D01*
X180890476Y-128607200D02*
X181033333Y-128654819D01*
X181033333Y-128654819D02*
X181128571Y-128654819D01*
X181128571Y-128654819D02*
X181271428Y-128607200D01*
X181271428Y-128607200D02*
X181366666Y-128511961D01*
X181366666Y-128511961D02*
X181414285Y-128416723D01*
X181414285Y-128416723D02*
X181461904Y-128226247D01*
X181461904Y-128226247D02*
X181461904Y-128083390D01*
X181461904Y-128083390D02*
X181414285Y-127892914D01*
X181414285Y-127892914D02*
X181366666Y-127797676D01*
X181366666Y-127797676D02*
X181271428Y-127702438D01*
X181271428Y-127702438D02*
X181128571Y-127654819D01*
X181128571Y-127654819D02*
X181033333Y-127654819D01*
X181033333Y-127654819D02*
X180890476Y-127702438D01*
X180890476Y-127702438D02*
X180842857Y-127750057D01*
X179938095Y-127654819D02*
X180414285Y-127654819D01*
X180414285Y-127654819D02*
X180461904Y-128131009D01*
X180461904Y-128131009D02*
X180414285Y-128083390D01*
X180414285Y-128083390D02*
X180319047Y-128035771D01*
X180319047Y-128035771D02*
X180080952Y-128035771D01*
X180080952Y-128035771D02*
X179985714Y-128083390D01*
X179985714Y-128083390D02*
X179938095Y-128131009D01*
X179938095Y-128131009D02*
X179890476Y-128226247D01*
X179890476Y-128226247D02*
X179890476Y-128464342D01*
X179890476Y-128464342D02*
X179938095Y-128559580D01*
X179938095Y-128559580D02*
X179985714Y-128607200D01*
X179985714Y-128607200D02*
X180080952Y-128654819D01*
X180080952Y-128654819D02*
X180319047Y-128654819D01*
X180319047Y-128654819D02*
X180414285Y-128607200D01*
X180414285Y-128607200D02*
X180461904Y-128559580D01*
X179414285Y-128654819D02*
X179223809Y-128654819D01*
X179223809Y-128654819D02*
X179128571Y-128607200D01*
X179128571Y-128607200D02*
X179080952Y-128559580D01*
X179080952Y-128559580D02*
X178985714Y-128416723D01*
X178985714Y-128416723D02*
X178938095Y-128226247D01*
X178938095Y-128226247D02*
X178938095Y-127845295D01*
X178938095Y-127845295D02*
X178985714Y-127750057D01*
X178985714Y-127750057D02*
X179033333Y-127702438D01*
X179033333Y-127702438D02*
X179128571Y-127654819D01*
X179128571Y-127654819D02*
X179319047Y-127654819D01*
X179319047Y-127654819D02*
X179414285Y-127702438D01*
X179414285Y-127702438D02*
X179461904Y-127750057D01*
X179461904Y-127750057D02*
X179509523Y-127845295D01*
X179509523Y-127845295D02*
X179509523Y-128083390D01*
X179509523Y-128083390D02*
X179461904Y-128178628D01*
X179461904Y-128178628D02*
X179414285Y-128226247D01*
X179414285Y-128226247D02*
X179319047Y-128273866D01*
X179319047Y-128273866D02*
X179128571Y-128273866D01*
X179128571Y-128273866D02*
X179033333Y-128226247D01*
X179033333Y-128226247D02*
X178985714Y-128178628D01*
X178985714Y-128178628D02*
X178938095Y-128083390D01*
X118538245Y-110820891D02*
X118538245Y-110888235D01*
X118538245Y-110888235D02*
X118605589Y-111022922D01*
X118605589Y-111022922D02*
X118672932Y-111090265D01*
X118672932Y-111090265D02*
X118807619Y-111157609D01*
X118807619Y-111157609D02*
X118942306Y-111157609D01*
X118942306Y-111157609D02*
X119043321Y-111123937D01*
X119043321Y-111123937D02*
X119211680Y-111022922D01*
X119211680Y-111022922D02*
X119312695Y-110921907D01*
X119312695Y-110921907D02*
X119413711Y-110753548D01*
X119413711Y-110753548D02*
X119447382Y-110652533D01*
X119447382Y-110652533D02*
X119447382Y-110517846D01*
X119447382Y-110517846D02*
X119380039Y-110383159D01*
X119380039Y-110383159D02*
X119312695Y-110315815D01*
X119312695Y-110315815D02*
X119178008Y-110248472D01*
X119178008Y-110248472D02*
X119110665Y-110248472D01*
X118336215Y-109810739D02*
X117864810Y-110282143D01*
X118773947Y-109709724D02*
X118437230Y-110383159D01*
X118437230Y-110383159D02*
X117999497Y-109945426D01*
X117797466Y-109406678D02*
X117898482Y-109440349D01*
X117898482Y-109440349D02*
X117965825Y-109440349D01*
X117965825Y-109440349D02*
X118066840Y-109406678D01*
X118066840Y-109406678D02*
X118100512Y-109373006D01*
X118100512Y-109373006D02*
X118134184Y-109271991D01*
X118134184Y-109271991D02*
X118134184Y-109204647D01*
X118134184Y-109204647D02*
X118100512Y-109103632D01*
X118100512Y-109103632D02*
X117965825Y-108968945D01*
X117965825Y-108968945D02*
X117864810Y-108935273D01*
X117864810Y-108935273D02*
X117797466Y-108935273D01*
X117797466Y-108935273D02*
X117696451Y-108968945D01*
X117696451Y-108968945D02*
X117662779Y-109002617D01*
X117662779Y-109002617D02*
X117629108Y-109103632D01*
X117629108Y-109103632D02*
X117629108Y-109170975D01*
X117629108Y-109170975D02*
X117662779Y-109271991D01*
X117662779Y-109271991D02*
X117797466Y-109406678D01*
X117797466Y-109406678D02*
X117831138Y-109507693D01*
X117831138Y-109507693D02*
X117831138Y-109575036D01*
X117831138Y-109575036D02*
X117797466Y-109676052D01*
X117797466Y-109676052D02*
X117662779Y-109810739D01*
X117662779Y-109810739D02*
X117561764Y-109844410D01*
X117561764Y-109844410D02*
X117494421Y-109844410D01*
X117494421Y-109844410D02*
X117393405Y-109810739D01*
X117393405Y-109810739D02*
X117258718Y-109676052D01*
X117258718Y-109676052D02*
X117225047Y-109575036D01*
X117225047Y-109575036D02*
X117225047Y-109507693D01*
X117225047Y-109507693D02*
X117258718Y-109406678D01*
X117258718Y-109406678D02*
X117393405Y-109271991D01*
X117393405Y-109271991D02*
X117494421Y-109238319D01*
X117494421Y-109238319D02*
X117561764Y-109238319D01*
X117561764Y-109238319D02*
X117662779Y-109271991D01*
X102142857Y-134754819D02*
X102476190Y-134278628D01*
X102714285Y-134754819D02*
X102714285Y-133754819D01*
X102714285Y-133754819D02*
X102333333Y-133754819D01*
X102333333Y-133754819D02*
X102238095Y-133802438D01*
X102238095Y-133802438D02*
X102190476Y-133850057D01*
X102190476Y-133850057D02*
X102142857Y-133945295D01*
X102142857Y-133945295D02*
X102142857Y-134088152D01*
X102142857Y-134088152D02*
X102190476Y-134183390D01*
X102190476Y-134183390D02*
X102238095Y-134231009D01*
X102238095Y-134231009D02*
X102333333Y-134278628D01*
X102333333Y-134278628D02*
X102714285Y-134278628D01*
X101571428Y-134183390D02*
X101666666Y-134135771D01*
X101666666Y-134135771D02*
X101714285Y-134088152D01*
X101714285Y-134088152D02*
X101761904Y-133992914D01*
X101761904Y-133992914D02*
X101761904Y-133945295D01*
X101761904Y-133945295D02*
X101714285Y-133850057D01*
X101714285Y-133850057D02*
X101666666Y-133802438D01*
X101666666Y-133802438D02*
X101571428Y-133754819D01*
X101571428Y-133754819D02*
X101380952Y-133754819D01*
X101380952Y-133754819D02*
X101285714Y-133802438D01*
X101285714Y-133802438D02*
X101238095Y-133850057D01*
X101238095Y-133850057D02*
X101190476Y-133945295D01*
X101190476Y-133945295D02*
X101190476Y-133992914D01*
X101190476Y-133992914D02*
X101238095Y-134088152D01*
X101238095Y-134088152D02*
X101285714Y-134135771D01*
X101285714Y-134135771D02*
X101380952Y-134183390D01*
X101380952Y-134183390D02*
X101571428Y-134183390D01*
X101571428Y-134183390D02*
X101666666Y-134231009D01*
X101666666Y-134231009D02*
X101714285Y-134278628D01*
X101714285Y-134278628D02*
X101761904Y-134373866D01*
X101761904Y-134373866D02*
X101761904Y-134564342D01*
X101761904Y-134564342D02*
X101714285Y-134659580D01*
X101714285Y-134659580D02*
X101666666Y-134707200D01*
X101666666Y-134707200D02*
X101571428Y-134754819D01*
X101571428Y-134754819D02*
X101380952Y-134754819D01*
X101380952Y-134754819D02*
X101285714Y-134707200D01*
X101285714Y-134707200D02*
X101238095Y-134659580D01*
X101238095Y-134659580D02*
X101190476Y-134564342D01*
X101190476Y-134564342D02*
X101190476Y-134373866D01*
X101190476Y-134373866D02*
X101238095Y-134278628D01*
X101238095Y-134278628D02*
X101285714Y-134231009D01*
X101285714Y-134231009D02*
X101380952Y-134183390D01*
X100857142Y-133754819D02*
X100238095Y-133754819D01*
X100238095Y-133754819D02*
X100571428Y-134135771D01*
X100571428Y-134135771D02*
X100428571Y-134135771D01*
X100428571Y-134135771D02*
X100333333Y-134183390D01*
X100333333Y-134183390D02*
X100285714Y-134231009D01*
X100285714Y-134231009D02*
X100238095Y-134326247D01*
X100238095Y-134326247D02*
X100238095Y-134564342D01*
X100238095Y-134564342D02*
X100285714Y-134659580D01*
X100285714Y-134659580D02*
X100333333Y-134707200D01*
X100333333Y-134707200D02*
X100428571Y-134754819D01*
X100428571Y-134754819D02*
X100714285Y-134754819D01*
X100714285Y-134754819D02*
X100809523Y-134707200D01*
X100809523Y-134707200D02*
X100857142Y-134659580D01*
X95466666Y-89454819D02*
X95799999Y-88978628D01*
X96038094Y-89454819D02*
X96038094Y-88454819D01*
X96038094Y-88454819D02*
X95657142Y-88454819D01*
X95657142Y-88454819D02*
X95561904Y-88502438D01*
X95561904Y-88502438D02*
X95514285Y-88550057D01*
X95514285Y-88550057D02*
X95466666Y-88645295D01*
X95466666Y-88645295D02*
X95466666Y-88788152D01*
X95466666Y-88788152D02*
X95514285Y-88883390D01*
X95514285Y-88883390D02*
X95561904Y-88931009D01*
X95561904Y-88931009D02*
X95657142Y-88978628D01*
X95657142Y-88978628D02*
X96038094Y-88978628D01*
X95133332Y-88454819D02*
X94466666Y-88454819D01*
X94466666Y-88454819D02*
X94895237Y-89454819D01*
X180242857Y-98554819D02*
X180576190Y-98078628D01*
X180814285Y-98554819D02*
X180814285Y-97554819D01*
X180814285Y-97554819D02*
X180433333Y-97554819D01*
X180433333Y-97554819D02*
X180338095Y-97602438D01*
X180338095Y-97602438D02*
X180290476Y-97650057D01*
X180290476Y-97650057D02*
X180242857Y-97745295D01*
X180242857Y-97745295D02*
X180242857Y-97888152D01*
X180242857Y-97888152D02*
X180290476Y-97983390D01*
X180290476Y-97983390D02*
X180338095Y-98031009D01*
X180338095Y-98031009D02*
X180433333Y-98078628D01*
X180433333Y-98078628D02*
X180814285Y-98078628D01*
X179385714Y-97554819D02*
X179576190Y-97554819D01*
X179576190Y-97554819D02*
X179671428Y-97602438D01*
X179671428Y-97602438D02*
X179719047Y-97650057D01*
X179719047Y-97650057D02*
X179814285Y-97792914D01*
X179814285Y-97792914D02*
X179861904Y-97983390D01*
X179861904Y-97983390D02*
X179861904Y-98364342D01*
X179861904Y-98364342D02*
X179814285Y-98459580D01*
X179814285Y-98459580D02*
X179766666Y-98507200D01*
X179766666Y-98507200D02*
X179671428Y-98554819D01*
X179671428Y-98554819D02*
X179480952Y-98554819D01*
X179480952Y-98554819D02*
X179385714Y-98507200D01*
X179385714Y-98507200D02*
X179338095Y-98459580D01*
X179338095Y-98459580D02*
X179290476Y-98364342D01*
X179290476Y-98364342D02*
X179290476Y-98126247D01*
X179290476Y-98126247D02*
X179338095Y-98031009D01*
X179338095Y-98031009D02*
X179385714Y-97983390D01*
X179385714Y-97983390D02*
X179480952Y-97935771D01*
X179480952Y-97935771D02*
X179671428Y-97935771D01*
X179671428Y-97935771D02*
X179766666Y-97983390D01*
X179766666Y-97983390D02*
X179814285Y-98031009D01*
X179814285Y-98031009D02*
X179861904Y-98126247D01*
X178385714Y-97554819D02*
X178861904Y-97554819D01*
X178861904Y-97554819D02*
X178909523Y-98031009D01*
X178909523Y-98031009D02*
X178861904Y-97983390D01*
X178861904Y-97983390D02*
X178766666Y-97935771D01*
X178766666Y-97935771D02*
X178528571Y-97935771D01*
X178528571Y-97935771D02*
X178433333Y-97983390D01*
X178433333Y-97983390D02*
X178385714Y-98031009D01*
X178385714Y-98031009D02*
X178338095Y-98126247D01*
X178338095Y-98126247D02*
X178338095Y-98364342D01*
X178338095Y-98364342D02*
X178385714Y-98459580D01*
X178385714Y-98459580D02*
X178433333Y-98507200D01*
X178433333Y-98507200D02*
X178528571Y-98554819D01*
X178528571Y-98554819D02*
X178766666Y-98554819D01*
X178766666Y-98554819D02*
X178861904Y-98507200D01*
X178861904Y-98507200D02*
X178909523Y-98459580D01*
X102142857Y-136654819D02*
X102476190Y-136178628D01*
X102714285Y-136654819D02*
X102714285Y-135654819D01*
X102714285Y-135654819D02*
X102333333Y-135654819D01*
X102333333Y-135654819D02*
X102238095Y-135702438D01*
X102238095Y-135702438D02*
X102190476Y-135750057D01*
X102190476Y-135750057D02*
X102142857Y-135845295D01*
X102142857Y-135845295D02*
X102142857Y-135988152D01*
X102142857Y-135988152D02*
X102190476Y-136083390D01*
X102190476Y-136083390D02*
X102238095Y-136131009D01*
X102238095Y-136131009D02*
X102333333Y-136178628D01*
X102333333Y-136178628D02*
X102714285Y-136178628D01*
X101571428Y-136083390D02*
X101666666Y-136035771D01*
X101666666Y-136035771D02*
X101714285Y-135988152D01*
X101714285Y-135988152D02*
X101761904Y-135892914D01*
X101761904Y-135892914D02*
X101761904Y-135845295D01*
X101761904Y-135845295D02*
X101714285Y-135750057D01*
X101714285Y-135750057D02*
X101666666Y-135702438D01*
X101666666Y-135702438D02*
X101571428Y-135654819D01*
X101571428Y-135654819D02*
X101380952Y-135654819D01*
X101380952Y-135654819D02*
X101285714Y-135702438D01*
X101285714Y-135702438D02*
X101238095Y-135750057D01*
X101238095Y-135750057D02*
X101190476Y-135845295D01*
X101190476Y-135845295D02*
X101190476Y-135892914D01*
X101190476Y-135892914D02*
X101238095Y-135988152D01*
X101238095Y-135988152D02*
X101285714Y-136035771D01*
X101285714Y-136035771D02*
X101380952Y-136083390D01*
X101380952Y-136083390D02*
X101571428Y-136083390D01*
X101571428Y-136083390D02*
X101666666Y-136131009D01*
X101666666Y-136131009D02*
X101714285Y-136178628D01*
X101714285Y-136178628D02*
X101761904Y-136273866D01*
X101761904Y-136273866D02*
X101761904Y-136464342D01*
X101761904Y-136464342D02*
X101714285Y-136559580D01*
X101714285Y-136559580D02*
X101666666Y-136607200D01*
X101666666Y-136607200D02*
X101571428Y-136654819D01*
X101571428Y-136654819D02*
X101380952Y-136654819D01*
X101380952Y-136654819D02*
X101285714Y-136607200D01*
X101285714Y-136607200D02*
X101238095Y-136559580D01*
X101238095Y-136559580D02*
X101190476Y-136464342D01*
X101190476Y-136464342D02*
X101190476Y-136273866D01*
X101190476Y-136273866D02*
X101238095Y-136178628D01*
X101238095Y-136178628D02*
X101285714Y-136131009D01*
X101285714Y-136131009D02*
X101380952Y-136083390D01*
X100333333Y-135654819D02*
X100523809Y-135654819D01*
X100523809Y-135654819D02*
X100619047Y-135702438D01*
X100619047Y-135702438D02*
X100666666Y-135750057D01*
X100666666Y-135750057D02*
X100761904Y-135892914D01*
X100761904Y-135892914D02*
X100809523Y-136083390D01*
X100809523Y-136083390D02*
X100809523Y-136464342D01*
X100809523Y-136464342D02*
X100761904Y-136559580D01*
X100761904Y-136559580D02*
X100714285Y-136607200D01*
X100714285Y-136607200D02*
X100619047Y-136654819D01*
X100619047Y-136654819D02*
X100428571Y-136654819D01*
X100428571Y-136654819D02*
X100333333Y-136607200D01*
X100333333Y-136607200D02*
X100285714Y-136559580D01*
X100285714Y-136559580D02*
X100238095Y-136464342D01*
X100238095Y-136464342D02*
X100238095Y-136226247D01*
X100238095Y-136226247D02*
X100285714Y-136131009D01*
X100285714Y-136131009D02*
X100333333Y-136083390D01*
X100333333Y-136083390D02*
X100428571Y-136035771D01*
X100428571Y-136035771D02*
X100619047Y-136035771D01*
X100619047Y-136035771D02*
X100714285Y-136083390D01*
X100714285Y-136083390D02*
X100761904Y-136131009D01*
X100761904Y-136131009D02*
X100809523Y-136226247D01*
X108242857Y-101379580D02*
X108290476Y-101427200D01*
X108290476Y-101427200D02*
X108433333Y-101474819D01*
X108433333Y-101474819D02*
X108528571Y-101474819D01*
X108528571Y-101474819D02*
X108671428Y-101427200D01*
X108671428Y-101427200D02*
X108766666Y-101331961D01*
X108766666Y-101331961D02*
X108814285Y-101236723D01*
X108814285Y-101236723D02*
X108861904Y-101046247D01*
X108861904Y-101046247D02*
X108861904Y-100903390D01*
X108861904Y-100903390D02*
X108814285Y-100712914D01*
X108814285Y-100712914D02*
X108766666Y-100617676D01*
X108766666Y-100617676D02*
X108671428Y-100522438D01*
X108671428Y-100522438D02*
X108528571Y-100474819D01*
X108528571Y-100474819D02*
X108433333Y-100474819D01*
X108433333Y-100474819D02*
X108290476Y-100522438D01*
X108290476Y-100522438D02*
X108242857Y-100570057D01*
X107385714Y-100808152D02*
X107385714Y-101474819D01*
X107623809Y-100427200D02*
X107861904Y-101141485D01*
X107861904Y-101141485D02*
X107242857Y-101141485D01*
X106814285Y-101474819D02*
X106623809Y-101474819D01*
X106623809Y-101474819D02*
X106528571Y-101427200D01*
X106528571Y-101427200D02*
X106480952Y-101379580D01*
X106480952Y-101379580D02*
X106385714Y-101236723D01*
X106385714Y-101236723D02*
X106338095Y-101046247D01*
X106338095Y-101046247D02*
X106338095Y-100665295D01*
X106338095Y-100665295D02*
X106385714Y-100570057D01*
X106385714Y-100570057D02*
X106433333Y-100522438D01*
X106433333Y-100522438D02*
X106528571Y-100474819D01*
X106528571Y-100474819D02*
X106719047Y-100474819D01*
X106719047Y-100474819D02*
X106814285Y-100522438D01*
X106814285Y-100522438D02*
X106861904Y-100570057D01*
X106861904Y-100570057D02*
X106909523Y-100665295D01*
X106909523Y-100665295D02*
X106909523Y-100903390D01*
X106909523Y-100903390D02*
X106861904Y-100998628D01*
X106861904Y-100998628D02*
X106814285Y-101046247D01*
X106814285Y-101046247D02*
X106719047Y-101093866D01*
X106719047Y-101093866D02*
X106528571Y-101093866D01*
X106528571Y-101093866D02*
X106433333Y-101046247D01*
X106433333Y-101046247D02*
X106385714Y-100998628D01*
X106385714Y-100998628D02*
X106338095Y-100903390D01*
X140342857Y-62559580D02*
X140390476Y-62607200D01*
X140390476Y-62607200D02*
X140533333Y-62654819D01*
X140533333Y-62654819D02*
X140628571Y-62654819D01*
X140628571Y-62654819D02*
X140771428Y-62607200D01*
X140771428Y-62607200D02*
X140866666Y-62511961D01*
X140866666Y-62511961D02*
X140914285Y-62416723D01*
X140914285Y-62416723D02*
X140961904Y-62226247D01*
X140961904Y-62226247D02*
X140961904Y-62083390D01*
X140961904Y-62083390D02*
X140914285Y-61892914D01*
X140914285Y-61892914D02*
X140866666Y-61797676D01*
X140866666Y-61797676D02*
X140771428Y-61702438D01*
X140771428Y-61702438D02*
X140628571Y-61654819D01*
X140628571Y-61654819D02*
X140533333Y-61654819D01*
X140533333Y-61654819D02*
X140390476Y-61702438D01*
X140390476Y-61702438D02*
X140342857Y-61750057D01*
X139390476Y-62654819D02*
X139961904Y-62654819D01*
X139676190Y-62654819D02*
X139676190Y-61654819D01*
X139676190Y-61654819D02*
X139771428Y-61797676D01*
X139771428Y-61797676D02*
X139866666Y-61892914D01*
X139866666Y-61892914D02*
X139961904Y-61940533D01*
X138533333Y-61988152D02*
X138533333Y-62654819D01*
X138771428Y-61607200D02*
X139009523Y-62321485D01*
X139009523Y-62321485D02*
X138390476Y-62321485D01*
X186995238Y-81100057D02*
X187090476Y-81052438D01*
X187090476Y-81052438D02*
X187185714Y-80957200D01*
X187185714Y-80957200D02*
X187328571Y-80814342D01*
X187328571Y-80814342D02*
X187423809Y-80766723D01*
X187423809Y-80766723D02*
X187519047Y-80766723D01*
X187471428Y-81004819D02*
X187566666Y-80957200D01*
X187566666Y-80957200D02*
X187661904Y-80861961D01*
X187661904Y-80861961D02*
X187709523Y-80671485D01*
X187709523Y-80671485D02*
X187709523Y-80338152D01*
X187709523Y-80338152D02*
X187661904Y-80147676D01*
X187661904Y-80147676D02*
X187566666Y-80052438D01*
X187566666Y-80052438D02*
X187471428Y-80004819D01*
X187471428Y-80004819D02*
X187280952Y-80004819D01*
X187280952Y-80004819D02*
X187185714Y-80052438D01*
X187185714Y-80052438D02*
X187090476Y-80147676D01*
X187090476Y-80147676D02*
X187042857Y-80338152D01*
X187042857Y-80338152D02*
X187042857Y-80671485D01*
X187042857Y-80671485D02*
X187090476Y-80861961D01*
X187090476Y-80861961D02*
X187185714Y-80957200D01*
X187185714Y-80957200D02*
X187280952Y-81004819D01*
X187280952Y-81004819D02*
X187471428Y-81004819D01*
X186090476Y-81004819D02*
X186661904Y-81004819D01*
X186376190Y-81004819D02*
X186376190Y-80004819D01*
X186376190Y-80004819D02*
X186471428Y-80147676D01*
X186471428Y-80147676D02*
X186566666Y-80242914D01*
X186566666Y-80242914D02*
X186661904Y-80290533D01*
X141042857Y-135854819D02*
X141376190Y-135378628D01*
X141614285Y-135854819D02*
X141614285Y-134854819D01*
X141614285Y-134854819D02*
X141233333Y-134854819D01*
X141233333Y-134854819D02*
X141138095Y-134902438D01*
X141138095Y-134902438D02*
X141090476Y-134950057D01*
X141090476Y-134950057D02*
X141042857Y-135045295D01*
X141042857Y-135045295D02*
X141042857Y-135188152D01*
X141042857Y-135188152D02*
X141090476Y-135283390D01*
X141090476Y-135283390D02*
X141138095Y-135331009D01*
X141138095Y-135331009D02*
X141233333Y-135378628D01*
X141233333Y-135378628D02*
X141614285Y-135378628D01*
X140566666Y-135854819D02*
X140376190Y-135854819D01*
X140376190Y-135854819D02*
X140280952Y-135807200D01*
X140280952Y-135807200D02*
X140233333Y-135759580D01*
X140233333Y-135759580D02*
X140138095Y-135616723D01*
X140138095Y-135616723D02*
X140090476Y-135426247D01*
X140090476Y-135426247D02*
X140090476Y-135045295D01*
X140090476Y-135045295D02*
X140138095Y-134950057D01*
X140138095Y-134950057D02*
X140185714Y-134902438D01*
X140185714Y-134902438D02*
X140280952Y-134854819D01*
X140280952Y-134854819D02*
X140471428Y-134854819D01*
X140471428Y-134854819D02*
X140566666Y-134902438D01*
X140566666Y-134902438D02*
X140614285Y-134950057D01*
X140614285Y-134950057D02*
X140661904Y-135045295D01*
X140661904Y-135045295D02*
X140661904Y-135283390D01*
X140661904Y-135283390D02*
X140614285Y-135378628D01*
X140614285Y-135378628D02*
X140566666Y-135426247D01*
X140566666Y-135426247D02*
X140471428Y-135473866D01*
X140471428Y-135473866D02*
X140280952Y-135473866D01*
X140280952Y-135473866D02*
X140185714Y-135426247D01*
X140185714Y-135426247D02*
X140138095Y-135378628D01*
X140138095Y-135378628D02*
X140090476Y-135283390D01*
X139233333Y-134854819D02*
X139423809Y-134854819D01*
X139423809Y-134854819D02*
X139519047Y-134902438D01*
X139519047Y-134902438D02*
X139566666Y-134950057D01*
X139566666Y-134950057D02*
X139661904Y-135092914D01*
X139661904Y-135092914D02*
X139709523Y-135283390D01*
X139709523Y-135283390D02*
X139709523Y-135664342D01*
X139709523Y-135664342D02*
X139661904Y-135759580D01*
X139661904Y-135759580D02*
X139614285Y-135807200D01*
X139614285Y-135807200D02*
X139519047Y-135854819D01*
X139519047Y-135854819D02*
X139328571Y-135854819D01*
X139328571Y-135854819D02*
X139233333Y-135807200D01*
X139233333Y-135807200D02*
X139185714Y-135759580D01*
X139185714Y-135759580D02*
X139138095Y-135664342D01*
X139138095Y-135664342D02*
X139138095Y-135426247D01*
X139138095Y-135426247D02*
X139185714Y-135331009D01*
X139185714Y-135331009D02*
X139233333Y-135283390D01*
X139233333Y-135283390D02*
X139328571Y-135235771D01*
X139328571Y-135235771D02*
X139519047Y-135235771D01*
X139519047Y-135235771D02*
X139614285Y-135283390D01*
X139614285Y-135283390D02*
X139661904Y-135331009D01*
X139661904Y-135331009D02*
X139709523Y-135426247D01*
X130642857Y-139554819D02*
X130976190Y-139078628D01*
X131214285Y-139554819D02*
X131214285Y-138554819D01*
X131214285Y-138554819D02*
X130833333Y-138554819D01*
X130833333Y-138554819D02*
X130738095Y-138602438D01*
X130738095Y-138602438D02*
X130690476Y-138650057D01*
X130690476Y-138650057D02*
X130642857Y-138745295D01*
X130642857Y-138745295D02*
X130642857Y-138888152D01*
X130642857Y-138888152D02*
X130690476Y-138983390D01*
X130690476Y-138983390D02*
X130738095Y-139031009D01*
X130738095Y-139031009D02*
X130833333Y-139078628D01*
X130833333Y-139078628D02*
X131214285Y-139078628D01*
X130071428Y-138983390D02*
X130166666Y-138935771D01*
X130166666Y-138935771D02*
X130214285Y-138888152D01*
X130214285Y-138888152D02*
X130261904Y-138792914D01*
X130261904Y-138792914D02*
X130261904Y-138745295D01*
X130261904Y-138745295D02*
X130214285Y-138650057D01*
X130214285Y-138650057D02*
X130166666Y-138602438D01*
X130166666Y-138602438D02*
X130071428Y-138554819D01*
X130071428Y-138554819D02*
X129880952Y-138554819D01*
X129880952Y-138554819D02*
X129785714Y-138602438D01*
X129785714Y-138602438D02*
X129738095Y-138650057D01*
X129738095Y-138650057D02*
X129690476Y-138745295D01*
X129690476Y-138745295D02*
X129690476Y-138792914D01*
X129690476Y-138792914D02*
X129738095Y-138888152D01*
X129738095Y-138888152D02*
X129785714Y-138935771D01*
X129785714Y-138935771D02*
X129880952Y-138983390D01*
X129880952Y-138983390D02*
X130071428Y-138983390D01*
X130071428Y-138983390D02*
X130166666Y-139031009D01*
X130166666Y-139031009D02*
X130214285Y-139078628D01*
X130214285Y-139078628D02*
X130261904Y-139173866D01*
X130261904Y-139173866D02*
X130261904Y-139364342D01*
X130261904Y-139364342D02*
X130214285Y-139459580D01*
X130214285Y-139459580D02*
X130166666Y-139507200D01*
X130166666Y-139507200D02*
X130071428Y-139554819D01*
X130071428Y-139554819D02*
X129880952Y-139554819D01*
X129880952Y-139554819D02*
X129785714Y-139507200D01*
X129785714Y-139507200D02*
X129738095Y-139459580D01*
X129738095Y-139459580D02*
X129690476Y-139364342D01*
X129690476Y-139364342D02*
X129690476Y-139173866D01*
X129690476Y-139173866D02*
X129738095Y-139078628D01*
X129738095Y-139078628D02*
X129785714Y-139031009D01*
X129785714Y-139031009D02*
X129880952Y-138983390D01*
X128738095Y-139554819D02*
X129309523Y-139554819D01*
X129023809Y-139554819D02*
X129023809Y-138554819D01*
X129023809Y-138554819D02*
X129119047Y-138697676D01*
X129119047Y-138697676D02*
X129214285Y-138792914D01*
X129214285Y-138792914D02*
X129309523Y-138840533D01*
X109508830Y-118699693D02*
X109576174Y-118699693D01*
X109576174Y-118699693D02*
X109710861Y-118632349D01*
X109710861Y-118632349D02*
X109778204Y-118565006D01*
X109778204Y-118565006D02*
X109845548Y-118430319D01*
X109845548Y-118430319D02*
X109845548Y-118295632D01*
X109845548Y-118295632D02*
X109811876Y-118194617D01*
X109811876Y-118194617D02*
X109710861Y-118026258D01*
X109710861Y-118026258D02*
X109609846Y-117925243D01*
X109609846Y-117925243D02*
X109441487Y-117824227D01*
X109441487Y-117824227D02*
X109340472Y-117790556D01*
X109340472Y-117790556D02*
X109205785Y-117790556D01*
X109205785Y-117790556D02*
X109071098Y-117857899D01*
X109071098Y-117857899D02*
X109003754Y-117925243D01*
X109003754Y-117925243D02*
X108936411Y-118059930D01*
X108936411Y-118059930D02*
X108936411Y-118127273D01*
X108902739Y-119440471D02*
X109306800Y-119036410D01*
X109104769Y-119238441D02*
X108397663Y-118531334D01*
X108397663Y-118531334D02*
X108566021Y-118565006D01*
X108566021Y-118565006D02*
X108700708Y-118565006D01*
X108700708Y-118565006D02*
X108801724Y-118531334D01*
X107993601Y-119070082D02*
X107926258Y-119070082D01*
X107926258Y-119070082D02*
X107825243Y-119103754D01*
X107825243Y-119103754D02*
X107656884Y-119272113D01*
X107656884Y-119272113D02*
X107623212Y-119373128D01*
X107623212Y-119373128D02*
X107623212Y-119440472D01*
X107623212Y-119440472D02*
X107656884Y-119541487D01*
X107656884Y-119541487D02*
X107724227Y-119608830D01*
X107724227Y-119608830D02*
X107858914Y-119676174D01*
X107858914Y-119676174D02*
X108667036Y-119676174D01*
X108667036Y-119676174D02*
X108229304Y-120113907D01*
X176942857Y-96459580D02*
X176990476Y-96507200D01*
X176990476Y-96507200D02*
X177133333Y-96554819D01*
X177133333Y-96554819D02*
X177228571Y-96554819D01*
X177228571Y-96554819D02*
X177371428Y-96507200D01*
X177371428Y-96507200D02*
X177466666Y-96411961D01*
X177466666Y-96411961D02*
X177514285Y-96316723D01*
X177514285Y-96316723D02*
X177561904Y-96126247D01*
X177561904Y-96126247D02*
X177561904Y-95983390D01*
X177561904Y-95983390D02*
X177514285Y-95792914D01*
X177514285Y-95792914D02*
X177466666Y-95697676D01*
X177466666Y-95697676D02*
X177371428Y-95602438D01*
X177371428Y-95602438D02*
X177228571Y-95554819D01*
X177228571Y-95554819D02*
X177133333Y-95554819D01*
X177133333Y-95554819D02*
X176990476Y-95602438D01*
X176990476Y-95602438D02*
X176942857Y-95650057D01*
X176561904Y-95650057D02*
X176514285Y-95602438D01*
X176514285Y-95602438D02*
X176419047Y-95554819D01*
X176419047Y-95554819D02*
X176180952Y-95554819D01*
X176180952Y-95554819D02*
X176085714Y-95602438D01*
X176085714Y-95602438D02*
X176038095Y-95650057D01*
X176038095Y-95650057D02*
X175990476Y-95745295D01*
X175990476Y-95745295D02*
X175990476Y-95840533D01*
X175990476Y-95840533D02*
X176038095Y-95983390D01*
X176038095Y-95983390D02*
X176609523Y-96554819D01*
X176609523Y-96554819D02*
X175990476Y-96554819D01*
X175609523Y-95650057D02*
X175561904Y-95602438D01*
X175561904Y-95602438D02*
X175466666Y-95554819D01*
X175466666Y-95554819D02*
X175228571Y-95554819D01*
X175228571Y-95554819D02*
X175133333Y-95602438D01*
X175133333Y-95602438D02*
X175085714Y-95650057D01*
X175085714Y-95650057D02*
X175038095Y-95745295D01*
X175038095Y-95745295D02*
X175038095Y-95840533D01*
X175038095Y-95840533D02*
X175085714Y-95983390D01*
X175085714Y-95983390D02*
X175657142Y-96554819D01*
X175657142Y-96554819D02*
X175038095Y-96554819D01*
X130542857Y-104159580D02*
X130590476Y-104207200D01*
X130590476Y-104207200D02*
X130733333Y-104254819D01*
X130733333Y-104254819D02*
X130828571Y-104254819D01*
X130828571Y-104254819D02*
X130971428Y-104207200D01*
X130971428Y-104207200D02*
X131066666Y-104111961D01*
X131066666Y-104111961D02*
X131114285Y-104016723D01*
X131114285Y-104016723D02*
X131161904Y-103826247D01*
X131161904Y-103826247D02*
X131161904Y-103683390D01*
X131161904Y-103683390D02*
X131114285Y-103492914D01*
X131114285Y-103492914D02*
X131066666Y-103397676D01*
X131066666Y-103397676D02*
X130971428Y-103302438D01*
X130971428Y-103302438D02*
X130828571Y-103254819D01*
X130828571Y-103254819D02*
X130733333Y-103254819D01*
X130733333Y-103254819D02*
X130590476Y-103302438D01*
X130590476Y-103302438D02*
X130542857Y-103350057D01*
X129685714Y-103588152D02*
X129685714Y-104254819D01*
X129923809Y-103207200D02*
X130161904Y-103921485D01*
X130161904Y-103921485D02*
X129542857Y-103921485D01*
X128733333Y-103588152D02*
X128733333Y-104254819D01*
X128971428Y-103207200D02*
X129209523Y-103921485D01*
X129209523Y-103921485D02*
X128590476Y-103921485D01*
X179842857Y-141459580D02*
X179890476Y-141507200D01*
X179890476Y-141507200D02*
X180033333Y-141554819D01*
X180033333Y-141554819D02*
X180128571Y-141554819D01*
X180128571Y-141554819D02*
X180271428Y-141507200D01*
X180271428Y-141507200D02*
X180366666Y-141411961D01*
X180366666Y-141411961D02*
X180414285Y-141316723D01*
X180414285Y-141316723D02*
X180461904Y-141126247D01*
X180461904Y-141126247D02*
X180461904Y-140983390D01*
X180461904Y-140983390D02*
X180414285Y-140792914D01*
X180414285Y-140792914D02*
X180366666Y-140697676D01*
X180366666Y-140697676D02*
X180271428Y-140602438D01*
X180271428Y-140602438D02*
X180128571Y-140554819D01*
X180128571Y-140554819D02*
X180033333Y-140554819D01*
X180033333Y-140554819D02*
X179890476Y-140602438D01*
X179890476Y-140602438D02*
X179842857Y-140650057D01*
X179509523Y-140554819D02*
X178890476Y-140554819D01*
X178890476Y-140554819D02*
X179223809Y-140935771D01*
X179223809Y-140935771D02*
X179080952Y-140935771D01*
X179080952Y-140935771D02*
X178985714Y-140983390D01*
X178985714Y-140983390D02*
X178938095Y-141031009D01*
X178938095Y-141031009D02*
X178890476Y-141126247D01*
X178890476Y-141126247D02*
X178890476Y-141364342D01*
X178890476Y-141364342D02*
X178938095Y-141459580D01*
X178938095Y-141459580D02*
X178985714Y-141507200D01*
X178985714Y-141507200D02*
X179080952Y-141554819D01*
X179080952Y-141554819D02*
X179366666Y-141554819D01*
X179366666Y-141554819D02*
X179461904Y-141507200D01*
X179461904Y-141507200D02*
X179509523Y-141459580D01*
X178271428Y-140554819D02*
X178176190Y-140554819D01*
X178176190Y-140554819D02*
X178080952Y-140602438D01*
X178080952Y-140602438D02*
X178033333Y-140650057D01*
X178033333Y-140650057D02*
X177985714Y-140745295D01*
X177985714Y-140745295D02*
X177938095Y-140935771D01*
X177938095Y-140935771D02*
X177938095Y-141173866D01*
X177938095Y-141173866D02*
X177985714Y-141364342D01*
X177985714Y-141364342D02*
X178033333Y-141459580D01*
X178033333Y-141459580D02*
X178080952Y-141507200D01*
X178080952Y-141507200D02*
X178176190Y-141554819D01*
X178176190Y-141554819D02*
X178271428Y-141554819D01*
X178271428Y-141554819D02*
X178366666Y-141507200D01*
X178366666Y-141507200D02*
X178414285Y-141459580D01*
X178414285Y-141459580D02*
X178461904Y-141364342D01*
X178461904Y-141364342D02*
X178509523Y-141173866D01*
X178509523Y-141173866D02*
X178509523Y-140935771D01*
X178509523Y-140935771D02*
X178461904Y-140745295D01*
X178461904Y-140745295D02*
X178414285Y-140650057D01*
X178414285Y-140650057D02*
X178366666Y-140602438D01*
X178366666Y-140602438D02*
X178271428Y-140554819D01*
X138042857Y-135854819D02*
X138376190Y-135378628D01*
X138614285Y-135854819D02*
X138614285Y-134854819D01*
X138614285Y-134854819D02*
X138233333Y-134854819D01*
X138233333Y-134854819D02*
X138138095Y-134902438D01*
X138138095Y-134902438D02*
X138090476Y-134950057D01*
X138090476Y-134950057D02*
X138042857Y-135045295D01*
X138042857Y-135045295D02*
X138042857Y-135188152D01*
X138042857Y-135188152D02*
X138090476Y-135283390D01*
X138090476Y-135283390D02*
X138138095Y-135331009D01*
X138138095Y-135331009D02*
X138233333Y-135378628D01*
X138233333Y-135378628D02*
X138614285Y-135378628D01*
X137566666Y-135854819D02*
X137376190Y-135854819D01*
X137376190Y-135854819D02*
X137280952Y-135807200D01*
X137280952Y-135807200D02*
X137233333Y-135759580D01*
X137233333Y-135759580D02*
X137138095Y-135616723D01*
X137138095Y-135616723D02*
X137090476Y-135426247D01*
X137090476Y-135426247D02*
X137090476Y-135045295D01*
X137090476Y-135045295D02*
X137138095Y-134950057D01*
X137138095Y-134950057D02*
X137185714Y-134902438D01*
X137185714Y-134902438D02*
X137280952Y-134854819D01*
X137280952Y-134854819D02*
X137471428Y-134854819D01*
X137471428Y-134854819D02*
X137566666Y-134902438D01*
X137566666Y-134902438D02*
X137614285Y-134950057D01*
X137614285Y-134950057D02*
X137661904Y-135045295D01*
X137661904Y-135045295D02*
X137661904Y-135283390D01*
X137661904Y-135283390D02*
X137614285Y-135378628D01*
X137614285Y-135378628D02*
X137566666Y-135426247D01*
X137566666Y-135426247D02*
X137471428Y-135473866D01*
X137471428Y-135473866D02*
X137280952Y-135473866D01*
X137280952Y-135473866D02*
X137185714Y-135426247D01*
X137185714Y-135426247D02*
X137138095Y-135378628D01*
X137138095Y-135378628D02*
X137090476Y-135283390D01*
X136185714Y-134854819D02*
X136661904Y-134854819D01*
X136661904Y-134854819D02*
X136709523Y-135331009D01*
X136709523Y-135331009D02*
X136661904Y-135283390D01*
X136661904Y-135283390D02*
X136566666Y-135235771D01*
X136566666Y-135235771D02*
X136328571Y-135235771D01*
X136328571Y-135235771D02*
X136233333Y-135283390D01*
X136233333Y-135283390D02*
X136185714Y-135331009D01*
X136185714Y-135331009D02*
X136138095Y-135426247D01*
X136138095Y-135426247D02*
X136138095Y-135664342D01*
X136138095Y-135664342D02*
X136185714Y-135759580D01*
X136185714Y-135759580D02*
X136233333Y-135807200D01*
X136233333Y-135807200D02*
X136328571Y-135854819D01*
X136328571Y-135854819D02*
X136566666Y-135854819D01*
X136566666Y-135854819D02*
X136661904Y-135807200D01*
X136661904Y-135807200D02*
X136709523Y-135759580D01*
X99566666Y-114654819D02*
X99899999Y-114178628D01*
X100138094Y-114654819D02*
X100138094Y-113654819D01*
X100138094Y-113654819D02*
X99757142Y-113654819D01*
X99757142Y-113654819D02*
X99661904Y-113702438D01*
X99661904Y-113702438D02*
X99614285Y-113750057D01*
X99614285Y-113750057D02*
X99566666Y-113845295D01*
X99566666Y-113845295D02*
X99566666Y-113988152D01*
X99566666Y-113988152D02*
X99614285Y-114083390D01*
X99614285Y-114083390D02*
X99661904Y-114131009D01*
X99661904Y-114131009D02*
X99757142Y-114178628D01*
X99757142Y-114178628D02*
X100138094Y-114178628D01*
X99233332Y-113654819D02*
X98614285Y-113654819D01*
X98614285Y-113654819D02*
X98947618Y-114035771D01*
X98947618Y-114035771D02*
X98804761Y-114035771D01*
X98804761Y-114035771D02*
X98709523Y-114083390D01*
X98709523Y-114083390D02*
X98661904Y-114131009D01*
X98661904Y-114131009D02*
X98614285Y-114226247D01*
X98614285Y-114226247D02*
X98614285Y-114464342D01*
X98614285Y-114464342D02*
X98661904Y-114559580D01*
X98661904Y-114559580D02*
X98709523Y-114607200D01*
X98709523Y-114607200D02*
X98804761Y-114654819D01*
X98804761Y-114654819D02*
X99090475Y-114654819D01*
X99090475Y-114654819D02*
X99185713Y-114607200D01*
X99185713Y-114607200D02*
X99233332Y-114559580D01*
X183742857Y-128559580D02*
X183790476Y-128607200D01*
X183790476Y-128607200D02*
X183933333Y-128654819D01*
X183933333Y-128654819D02*
X184028571Y-128654819D01*
X184028571Y-128654819D02*
X184171428Y-128607200D01*
X184171428Y-128607200D02*
X184266666Y-128511961D01*
X184266666Y-128511961D02*
X184314285Y-128416723D01*
X184314285Y-128416723D02*
X184361904Y-128226247D01*
X184361904Y-128226247D02*
X184361904Y-128083390D01*
X184361904Y-128083390D02*
X184314285Y-127892914D01*
X184314285Y-127892914D02*
X184266666Y-127797676D01*
X184266666Y-127797676D02*
X184171428Y-127702438D01*
X184171428Y-127702438D02*
X184028571Y-127654819D01*
X184028571Y-127654819D02*
X183933333Y-127654819D01*
X183933333Y-127654819D02*
X183790476Y-127702438D01*
X183790476Y-127702438D02*
X183742857Y-127750057D01*
X182885714Y-127654819D02*
X183076190Y-127654819D01*
X183076190Y-127654819D02*
X183171428Y-127702438D01*
X183171428Y-127702438D02*
X183219047Y-127750057D01*
X183219047Y-127750057D02*
X183314285Y-127892914D01*
X183314285Y-127892914D02*
X183361904Y-128083390D01*
X183361904Y-128083390D02*
X183361904Y-128464342D01*
X183361904Y-128464342D02*
X183314285Y-128559580D01*
X183314285Y-128559580D02*
X183266666Y-128607200D01*
X183266666Y-128607200D02*
X183171428Y-128654819D01*
X183171428Y-128654819D02*
X182980952Y-128654819D01*
X182980952Y-128654819D02*
X182885714Y-128607200D01*
X182885714Y-128607200D02*
X182838095Y-128559580D01*
X182838095Y-128559580D02*
X182790476Y-128464342D01*
X182790476Y-128464342D02*
X182790476Y-128226247D01*
X182790476Y-128226247D02*
X182838095Y-128131009D01*
X182838095Y-128131009D02*
X182885714Y-128083390D01*
X182885714Y-128083390D02*
X182980952Y-128035771D01*
X182980952Y-128035771D02*
X183171428Y-128035771D01*
X183171428Y-128035771D02*
X183266666Y-128083390D01*
X183266666Y-128083390D02*
X183314285Y-128131009D01*
X183314285Y-128131009D02*
X183361904Y-128226247D01*
X182171428Y-127654819D02*
X182076190Y-127654819D01*
X182076190Y-127654819D02*
X181980952Y-127702438D01*
X181980952Y-127702438D02*
X181933333Y-127750057D01*
X181933333Y-127750057D02*
X181885714Y-127845295D01*
X181885714Y-127845295D02*
X181838095Y-128035771D01*
X181838095Y-128035771D02*
X181838095Y-128273866D01*
X181838095Y-128273866D02*
X181885714Y-128464342D01*
X181885714Y-128464342D02*
X181933333Y-128559580D01*
X181933333Y-128559580D02*
X181980952Y-128607200D01*
X181980952Y-128607200D02*
X182076190Y-128654819D01*
X182076190Y-128654819D02*
X182171428Y-128654819D01*
X182171428Y-128654819D02*
X182266666Y-128607200D01*
X182266666Y-128607200D02*
X182314285Y-128559580D01*
X182314285Y-128559580D02*
X182361904Y-128464342D01*
X182361904Y-128464342D02*
X182409523Y-128273866D01*
X182409523Y-128273866D02*
X182409523Y-128035771D01*
X182409523Y-128035771D02*
X182361904Y-127845295D01*
X182361904Y-127845295D02*
X182314285Y-127750057D01*
X182314285Y-127750057D02*
X182266666Y-127702438D01*
X182266666Y-127702438D02*
X182171428Y-127654819D01*
X106438094Y-82854819D02*
X106438094Y-81854819D01*
X106438094Y-81854819D02*
X106199999Y-81854819D01*
X106199999Y-81854819D02*
X106057142Y-81902438D01*
X106057142Y-81902438D02*
X105961904Y-81997676D01*
X105961904Y-81997676D02*
X105914285Y-82092914D01*
X105914285Y-82092914D02*
X105866666Y-82283390D01*
X105866666Y-82283390D02*
X105866666Y-82426247D01*
X105866666Y-82426247D02*
X105914285Y-82616723D01*
X105914285Y-82616723D02*
X105961904Y-82711961D01*
X105961904Y-82711961D02*
X106057142Y-82807200D01*
X106057142Y-82807200D02*
X106199999Y-82854819D01*
X106199999Y-82854819D02*
X106438094Y-82854819D01*
X105533332Y-81854819D02*
X104914285Y-81854819D01*
X104914285Y-81854819D02*
X105247618Y-82235771D01*
X105247618Y-82235771D02*
X105104761Y-82235771D01*
X105104761Y-82235771D02*
X105009523Y-82283390D01*
X105009523Y-82283390D02*
X104961904Y-82331009D01*
X104961904Y-82331009D02*
X104914285Y-82426247D01*
X104914285Y-82426247D02*
X104914285Y-82664342D01*
X104914285Y-82664342D02*
X104961904Y-82759580D01*
X104961904Y-82759580D02*
X105009523Y-82807200D01*
X105009523Y-82807200D02*
X105104761Y-82854819D01*
X105104761Y-82854819D02*
X105390475Y-82854819D01*
X105390475Y-82854819D02*
X105485713Y-82807200D01*
X105485713Y-82807200D02*
X105533332Y-82759580D01*
X127342857Y-139854819D02*
X127676190Y-139378628D01*
X127914285Y-139854819D02*
X127914285Y-138854819D01*
X127914285Y-138854819D02*
X127533333Y-138854819D01*
X127533333Y-138854819D02*
X127438095Y-138902438D01*
X127438095Y-138902438D02*
X127390476Y-138950057D01*
X127390476Y-138950057D02*
X127342857Y-139045295D01*
X127342857Y-139045295D02*
X127342857Y-139188152D01*
X127342857Y-139188152D02*
X127390476Y-139283390D01*
X127390476Y-139283390D02*
X127438095Y-139331009D01*
X127438095Y-139331009D02*
X127533333Y-139378628D01*
X127533333Y-139378628D02*
X127914285Y-139378628D01*
X126866666Y-139854819D02*
X126676190Y-139854819D01*
X126676190Y-139854819D02*
X126580952Y-139807200D01*
X126580952Y-139807200D02*
X126533333Y-139759580D01*
X126533333Y-139759580D02*
X126438095Y-139616723D01*
X126438095Y-139616723D02*
X126390476Y-139426247D01*
X126390476Y-139426247D02*
X126390476Y-139045295D01*
X126390476Y-139045295D02*
X126438095Y-138950057D01*
X126438095Y-138950057D02*
X126485714Y-138902438D01*
X126485714Y-138902438D02*
X126580952Y-138854819D01*
X126580952Y-138854819D02*
X126771428Y-138854819D01*
X126771428Y-138854819D02*
X126866666Y-138902438D01*
X126866666Y-138902438D02*
X126914285Y-138950057D01*
X126914285Y-138950057D02*
X126961904Y-139045295D01*
X126961904Y-139045295D02*
X126961904Y-139283390D01*
X126961904Y-139283390D02*
X126914285Y-139378628D01*
X126914285Y-139378628D02*
X126866666Y-139426247D01*
X126866666Y-139426247D02*
X126771428Y-139473866D01*
X126771428Y-139473866D02*
X126580952Y-139473866D01*
X126580952Y-139473866D02*
X126485714Y-139426247D01*
X126485714Y-139426247D02*
X126438095Y-139378628D01*
X126438095Y-139378628D02*
X126390476Y-139283390D01*
X125533333Y-139188152D02*
X125533333Y-139854819D01*
X125771428Y-138807200D02*
X126009523Y-139521485D01*
X126009523Y-139521485D02*
X125390476Y-139521485D01*
X103220891Y-112311754D02*
X103288235Y-112311754D01*
X103288235Y-112311754D02*
X103422922Y-112244410D01*
X103422922Y-112244410D02*
X103490265Y-112177067D01*
X103490265Y-112177067D02*
X103557609Y-112042380D01*
X103557609Y-112042380D02*
X103557609Y-111907693D01*
X103557609Y-111907693D02*
X103523937Y-111806678D01*
X103523937Y-111806678D02*
X103422922Y-111638319D01*
X103422922Y-111638319D02*
X103321907Y-111537304D01*
X103321907Y-111537304D02*
X103153548Y-111436288D01*
X103153548Y-111436288D02*
X103052533Y-111402617D01*
X103052533Y-111402617D02*
X102917846Y-111402617D01*
X102917846Y-111402617D02*
X102783159Y-111469960D01*
X102783159Y-111469960D02*
X102715815Y-111537304D01*
X102715815Y-111537304D02*
X102648472Y-111671991D01*
X102648472Y-111671991D02*
X102648472Y-111739334D01*
X102614800Y-113052532D02*
X103018861Y-112648471D01*
X102816830Y-112850502D02*
X102109724Y-112143395D01*
X102109724Y-112143395D02*
X102278082Y-112177067D01*
X102278082Y-112177067D02*
X102412769Y-112177067D01*
X102412769Y-112177067D02*
X102513785Y-112143395D01*
X101941365Y-113725968D02*
X102345426Y-113321907D01*
X102143395Y-113523937D02*
X101436288Y-112816830D01*
X101436288Y-112816830D02*
X101604647Y-112850502D01*
X101604647Y-112850502D02*
X101739334Y-112850502D01*
X101739334Y-112850502D02*
X101840349Y-112816830D01*
X112092582Y-110402341D02*
X112665001Y-110301326D01*
X112496643Y-110806402D02*
X113203749Y-110099295D01*
X113203749Y-110099295D02*
X112934375Y-109829921D01*
X112934375Y-109829921D02*
X112833360Y-109796249D01*
X112833360Y-109796249D02*
X112766017Y-109796249D01*
X112766017Y-109796249D02*
X112665001Y-109829921D01*
X112665001Y-109829921D02*
X112563986Y-109930936D01*
X112563986Y-109930936D02*
X112530314Y-110031952D01*
X112530314Y-110031952D02*
X112530314Y-110099295D01*
X112530314Y-110099295D02*
X112563986Y-110200310D01*
X112563986Y-110200310D02*
X112833360Y-110469684D01*
X111419147Y-109728906D02*
X111823208Y-110132967D01*
X111621177Y-109930936D02*
X112328284Y-109223830D01*
X112328284Y-109223830D02*
X112294612Y-109392188D01*
X112294612Y-109392188D02*
X112294612Y-109526875D01*
X112294612Y-109526875D02*
X112328284Y-109627891D01*
X111520162Y-108415707D02*
X111654849Y-108550394D01*
X111654849Y-108550394D02*
X111688520Y-108651410D01*
X111688520Y-108651410D02*
X111688520Y-108718753D01*
X111688520Y-108718753D02*
X111654849Y-108887112D01*
X111654849Y-108887112D02*
X111553833Y-109055471D01*
X111553833Y-109055471D02*
X111284459Y-109324845D01*
X111284459Y-109324845D02*
X111183444Y-109358516D01*
X111183444Y-109358516D02*
X111116101Y-109358516D01*
X111116101Y-109358516D02*
X111015085Y-109324845D01*
X111015085Y-109324845D02*
X110880398Y-109190158D01*
X110880398Y-109190158D02*
X110846727Y-109089142D01*
X110846727Y-109089142D02*
X110846727Y-109021799D01*
X110846727Y-109021799D02*
X110880398Y-108920784D01*
X110880398Y-108920784D02*
X111048757Y-108752425D01*
X111048757Y-108752425D02*
X111149772Y-108718753D01*
X111149772Y-108718753D02*
X111217116Y-108718753D01*
X111217116Y-108718753D02*
X111318131Y-108752425D01*
X111318131Y-108752425D02*
X111452818Y-108887112D01*
X111452818Y-108887112D02*
X111486490Y-108988127D01*
X111486490Y-108988127D02*
X111486490Y-109055471D01*
X111486490Y-109055471D02*
X111452818Y-109156486D01*
X177842857Y-128454819D02*
X178176190Y-127978628D01*
X178414285Y-128454819D02*
X178414285Y-127454819D01*
X178414285Y-127454819D02*
X178033333Y-127454819D01*
X178033333Y-127454819D02*
X177938095Y-127502438D01*
X177938095Y-127502438D02*
X177890476Y-127550057D01*
X177890476Y-127550057D02*
X177842857Y-127645295D01*
X177842857Y-127645295D02*
X177842857Y-127788152D01*
X177842857Y-127788152D02*
X177890476Y-127883390D01*
X177890476Y-127883390D02*
X177938095Y-127931009D01*
X177938095Y-127931009D02*
X178033333Y-127978628D01*
X178033333Y-127978628D02*
X178414285Y-127978628D01*
X177509523Y-127454819D02*
X176842857Y-127454819D01*
X176842857Y-127454819D02*
X177271428Y-128454819D01*
X176033333Y-127788152D02*
X176033333Y-128454819D01*
X176271428Y-127407200D02*
X176509523Y-128121485D01*
X176509523Y-128121485D02*
X175890476Y-128121485D01*
X171242857Y-126759580D02*
X171290476Y-126807200D01*
X171290476Y-126807200D02*
X171433333Y-126854819D01*
X171433333Y-126854819D02*
X171528571Y-126854819D01*
X171528571Y-126854819D02*
X171671428Y-126807200D01*
X171671428Y-126807200D02*
X171766666Y-126711961D01*
X171766666Y-126711961D02*
X171814285Y-126616723D01*
X171814285Y-126616723D02*
X171861904Y-126426247D01*
X171861904Y-126426247D02*
X171861904Y-126283390D01*
X171861904Y-126283390D02*
X171814285Y-126092914D01*
X171814285Y-126092914D02*
X171766666Y-125997676D01*
X171766666Y-125997676D02*
X171671428Y-125902438D01*
X171671428Y-125902438D02*
X171528571Y-125854819D01*
X171528571Y-125854819D02*
X171433333Y-125854819D01*
X171433333Y-125854819D02*
X171290476Y-125902438D01*
X171290476Y-125902438D02*
X171242857Y-125950057D01*
X170338095Y-125854819D02*
X170814285Y-125854819D01*
X170814285Y-125854819D02*
X170861904Y-126331009D01*
X170861904Y-126331009D02*
X170814285Y-126283390D01*
X170814285Y-126283390D02*
X170719047Y-126235771D01*
X170719047Y-126235771D02*
X170480952Y-126235771D01*
X170480952Y-126235771D02*
X170385714Y-126283390D01*
X170385714Y-126283390D02*
X170338095Y-126331009D01*
X170338095Y-126331009D02*
X170290476Y-126426247D01*
X170290476Y-126426247D02*
X170290476Y-126664342D01*
X170290476Y-126664342D02*
X170338095Y-126759580D01*
X170338095Y-126759580D02*
X170385714Y-126807200D01*
X170385714Y-126807200D02*
X170480952Y-126854819D01*
X170480952Y-126854819D02*
X170719047Y-126854819D01*
X170719047Y-126854819D02*
X170814285Y-126807200D01*
X170814285Y-126807200D02*
X170861904Y-126759580D01*
X169719047Y-126283390D02*
X169814285Y-126235771D01*
X169814285Y-126235771D02*
X169861904Y-126188152D01*
X169861904Y-126188152D02*
X169909523Y-126092914D01*
X169909523Y-126092914D02*
X169909523Y-126045295D01*
X169909523Y-126045295D02*
X169861904Y-125950057D01*
X169861904Y-125950057D02*
X169814285Y-125902438D01*
X169814285Y-125902438D02*
X169719047Y-125854819D01*
X169719047Y-125854819D02*
X169528571Y-125854819D01*
X169528571Y-125854819D02*
X169433333Y-125902438D01*
X169433333Y-125902438D02*
X169385714Y-125950057D01*
X169385714Y-125950057D02*
X169338095Y-126045295D01*
X169338095Y-126045295D02*
X169338095Y-126092914D01*
X169338095Y-126092914D02*
X169385714Y-126188152D01*
X169385714Y-126188152D02*
X169433333Y-126235771D01*
X169433333Y-126235771D02*
X169528571Y-126283390D01*
X169528571Y-126283390D02*
X169719047Y-126283390D01*
X169719047Y-126283390D02*
X169814285Y-126331009D01*
X169814285Y-126331009D02*
X169861904Y-126378628D01*
X169861904Y-126378628D02*
X169909523Y-126473866D01*
X169909523Y-126473866D02*
X169909523Y-126664342D01*
X169909523Y-126664342D02*
X169861904Y-126759580D01*
X169861904Y-126759580D02*
X169814285Y-126807200D01*
X169814285Y-126807200D02*
X169719047Y-126854819D01*
X169719047Y-126854819D02*
X169528571Y-126854819D01*
X169528571Y-126854819D02*
X169433333Y-126807200D01*
X169433333Y-126807200D02*
X169385714Y-126759580D01*
X169385714Y-126759580D02*
X169338095Y-126664342D01*
X169338095Y-126664342D02*
X169338095Y-126473866D01*
X169338095Y-126473866D02*
X169385714Y-126378628D01*
X169385714Y-126378628D02*
X169433333Y-126331009D01*
X169433333Y-126331009D02*
X169528571Y-126283390D01*
X131242857Y-134254819D02*
X131576190Y-133778628D01*
X131814285Y-134254819D02*
X131814285Y-133254819D01*
X131814285Y-133254819D02*
X131433333Y-133254819D01*
X131433333Y-133254819D02*
X131338095Y-133302438D01*
X131338095Y-133302438D02*
X131290476Y-133350057D01*
X131290476Y-133350057D02*
X131242857Y-133445295D01*
X131242857Y-133445295D02*
X131242857Y-133588152D01*
X131242857Y-133588152D02*
X131290476Y-133683390D01*
X131290476Y-133683390D02*
X131338095Y-133731009D01*
X131338095Y-133731009D02*
X131433333Y-133778628D01*
X131433333Y-133778628D02*
X131814285Y-133778628D01*
X130766666Y-134254819D02*
X130576190Y-134254819D01*
X130576190Y-134254819D02*
X130480952Y-134207200D01*
X130480952Y-134207200D02*
X130433333Y-134159580D01*
X130433333Y-134159580D02*
X130338095Y-134016723D01*
X130338095Y-134016723D02*
X130290476Y-133826247D01*
X130290476Y-133826247D02*
X130290476Y-133445295D01*
X130290476Y-133445295D02*
X130338095Y-133350057D01*
X130338095Y-133350057D02*
X130385714Y-133302438D01*
X130385714Y-133302438D02*
X130480952Y-133254819D01*
X130480952Y-133254819D02*
X130671428Y-133254819D01*
X130671428Y-133254819D02*
X130766666Y-133302438D01*
X130766666Y-133302438D02*
X130814285Y-133350057D01*
X130814285Y-133350057D02*
X130861904Y-133445295D01*
X130861904Y-133445295D02*
X130861904Y-133683390D01*
X130861904Y-133683390D02*
X130814285Y-133778628D01*
X130814285Y-133778628D02*
X130766666Y-133826247D01*
X130766666Y-133826247D02*
X130671428Y-133873866D01*
X130671428Y-133873866D02*
X130480952Y-133873866D01*
X130480952Y-133873866D02*
X130385714Y-133826247D01*
X130385714Y-133826247D02*
X130338095Y-133778628D01*
X130338095Y-133778628D02*
X130290476Y-133683390D01*
X129957142Y-133254819D02*
X129290476Y-133254819D01*
X129290476Y-133254819D02*
X129719047Y-134254819D01*
X131242857Y-136354819D02*
X131576190Y-135878628D01*
X131814285Y-136354819D02*
X131814285Y-135354819D01*
X131814285Y-135354819D02*
X131433333Y-135354819D01*
X131433333Y-135354819D02*
X131338095Y-135402438D01*
X131338095Y-135402438D02*
X131290476Y-135450057D01*
X131290476Y-135450057D02*
X131242857Y-135545295D01*
X131242857Y-135545295D02*
X131242857Y-135688152D01*
X131242857Y-135688152D02*
X131290476Y-135783390D01*
X131290476Y-135783390D02*
X131338095Y-135831009D01*
X131338095Y-135831009D02*
X131433333Y-135878628D01*
X131433333Y-135878628D02*
X131814285Y-135878628D01*
X130766666Y-136354819D02*
X130576190Y-136354819D01*
X130576190Y-136354819D02*
X130480952Y-136307200D01*
X130480952Y-136307200D02*
X130433333Y-136259580D01*
X130433333Y-136259580D02*
X130338095Y-136116723D01*
X130338095Y-136116723D02*
X130290476Y-135926247D01*
X130290476Y-135926247D02*
X130290476Y-135545295D01*
X130290476Y-135545295D02*
X130338095Y-135450057D01*
X130338095Y-135450057D02*
X130385714Y-135402438D01*
X130385714Y-135402438D02*
X130480952Y-135354819D01*
X130480952Y-135354819D02*
X130671428Y-135354819D01*
X130671428Y-135354819D02*
X130766666Y-135402438D01*
X130766666Y-135402438D02*
X130814285Y-135450057D01*
X130814285Y-135450057D02*
X130861904Y-135545295D01*
X130861904Y-135545295D02*
X130861904Y-135783390D01*
X130861904Y-135783390D02*
X130814285Y-135878628D01*
X130814285Y-135878628D02*
X130766666Y-135926247D01*
X130766666Y-135926247D02*
X130671428Y-135973866D01*
X130671428Y-135973866D02*
X130480952Y-135973866D01*
X130480952Y-135973866D02*
X130385714Y-135926247D01*
X130385714Y-135926247D02*
X130338095Y-135878628D01*
X130338095Y-135878628D02*
X130290476Y-135783390D01*
X129719047Y-135783390D02*
X129814285Y-135735771D01*
X129814285Y-135735771D02*
X129861904Y-135688152D01*
X129861904Y-135688152D02*
X129909523Y-135592914D01*
X129909523Y-135592914D02*
X129909523Y-135545295D01*
X129909523Y-135545295D02*
X129861904Y-135450057D01*
X129861904Y-135450057D02*
X129814285Y-135402438D01*
X129814285Y-135402438D02*
X129719047Y-135354819D01*
X129719047Y-135354819D02*
X129528571Y-135354819D01*
X129528571Y-135354819D02*
X129433333Y-135402438D01*
X129433333Y-135402438D02*
X129385714Y-135450057D01*
X129385714Y-135450057D02*
X129338095Y-135545295D01*
X129338095Y-135545295D02*
X129338095Y-135592914D01*
X129338095Y-135592914D02*
X129385714Y-135688152D01*
X129385714Y-135688152D02*
X129433333Y-135735771D01*
X129433333Y-135735771D02*
X129528571Y-135783390D01*
X129528571Y-135783390D02*
X129719047Y-135783390D01*
X129719047Y-135783390D02*
X129814285Y-135831009D01*
X129814285Y-135831009D02*
X129861904Y-135878628D01*
X129861904Y-135878628D02*
X129909523Y-135973866D01*
X129909523Y-135973866D02*
X129909523Y-136164342D01*
X129909523Y-136164342D02*
X129861904Y-136259580D01*
X129861904Y-136259580D02*
X129814285Y-136307200D01*
X129814285Y-136307200D02*
X129719047Y-136354819D01*
X129719047Y-136354819D02*
X129528571Y-136354819D01*
X129528571Y-136354819D02*
X129433333Y-136307200D01*
X129433333Y-136307200D02*
X129385714Y-136259580D01*
X129385714Y-136259580D02*
X129338095Y-136164342D01*
X129338095Y-136164342D02*
X129338095Y-135973866D01*
X129338095Y-135973866D02*
X129385714Y-135878628D01*
X129385714Y-135878628D02*
X129433333Y-135831009D01*
X129433333Y-135831009D02*
X129528571Y-135783390D01*
X124366666Y-105429580D02*
X124414285Y-105477200D01*
X124414285Y-105477200D02*
X124557142Y-105524819D01*
X124557142Y-105524819D02*
X124652380Y-105524819D01*
X124652380Y-105524819D02*
X124795237Y-105477200D01*
X124795237Y-105477200D02*
X124890475Y-105381961D01*
X124890475Y-105381961D02*
X124938094Y-105286723D01*
X124938094Y-105286723D02*
X124985713Y-105096247D01*
X124985713Y-105096247D02*
X124985713Y-104953390D01*
X124985713Y-104953390D02*
X124938094Y-104762914D01*
X124938094Y-104762914D02*
X124890475Y-104667676D01*
X124890475Y-104667676D02*
X124795237Y-104572438D01*
X124795237Y-104572438D02*
X124652380Y-104524819D01*
X124652380Y-104524819D02*
X124557142Y-104524819D01*
X124557142Y-104524819D02*
X124414285Y-104572438D01*
X124414285Y-104572438D02*
X124366666Y-104620057D01*
X123795237Y-104953390D02*
X123890475Y-104905771D01*
X123890475Y-104905771D02*
X123938094Y-104858152D01*
X123938094Y-104858152D02*
X123985713Y-104762914D01*
X123985713Y-104762914D02*
X123985713Y-104715295D01*
X123985713Y-104715295D02*
X123938094Y-104620057D01*
X123938094Y-104620057D02*
X123890475Y-104572438D01*
X123890475Y-104572438D02*
X123795237Y-104524819D01*
X123795237Y-104524819D02*
X123604761Y-104524819D01*
X123604761Y-104524819D02*
X123509523Y-104572438D01*
X123509523Y-104572438D02*
X123461904Y-104620057D01*
X123461904Y-104620057D02*
X123414285Y-104715295D01*
X123414285Y-104715295D02*
X123414285Y-104762914D01*
X123414285Y-104762914D02*
X123461904Y-104858152D01*
X123461904Y-104858152D02*
X123509523Y-104905771D01*
X123509523Y-104905771D02*
X123604761Y-104953390D01*
X123604761Y-104953390D02*
X123795237Y-104953390D01*
X123795237Y-104953390D02*
X123890475Y-105001009D01*
X123890475Y-105001009D02*
X123938094Y-105048628D01*
X123938094Y-105048628D02*
X123985713Y-105143866D01*
X123985713Y-105143866D02*
X123985713Y-105334342D01*
X123985713Y-105334342D02*
X123938094Y-105429580D01*
X123938094Y-105429580D02*
X123890475Y-105477200D01*
X123890475Y-105477200D02*
X123795237Y-105524819D01*
X123795237Y-105524819D02*
X123604761Y-105524819D01*
X123604761Y-105524819D02*
X123509523Y-105477200D01*
X123509523Y-105477200D02*
X123461904Y-105429580D01*
X123461904Y-105429580D02*
X123414285Y-105334342D01*
X123414285Y-105334342D02*
X123414285Y-105143866D01*
X123414285Y-105143866D02*
X123461904Y-105048628D01*
X123461904Y-105048628D02*
X123509523Y-105001009D01*
X123509523Y-105001009D02*
X123604761Y-104953390D01*
X174142857Y-126759580D02*
X174190476Y-126807200D01*
X174190476Y-126807200D02*
X174333333Y-126854819D01*
X174333333Y-126854819D02*
X174428571Y-126854819D01*
X174428571Y-126854819D02*
X174571428Y-126807200D01*
X174571428Y-126807200D02*
X174666666Y-126711961D01*
X174666666Y-126711961D02*
X174714285Y-126616723D01*
X174714285Y-126616723D02*
X174761904Y-126426247D01*
X174761904Y-126426247D02*
X174761904Y-126283390D01*
X174761904Y-126283390D02*
X174714285Y-126092914D01*
X174714285Y-126092914D02*
X174666666Y-125997676D01*
X174666666Y-125997676D02*
X174571428Y-125902438D01*
X174571428Y-125902438D02*
X174428571Y-125854819D01*
X174428571Y-125854819D02*
X174333333Y-125854819D01*
X174333333Y-125854819D02*
X174190476Y-125902438D01*
X174190476Y-125902438D02*
X174142857Y-125950057D01*
X173238095Y-125854819D02*
X173714285Y-125854819D01*
X173714285Y-125854819D02*
X173761904Y-126331009D01*
X173761904Y-126331009D02*
X173714285Y-126283390D01*
X173714285Y-126283390D02*
X173619047Y-126235771D01*
X173619047Y-126235771D02*
X173380952Y-126235771D01*
X173380952Y-126235771D02*
X173285714Y-126283390D01*
X173285714Y-126283390D02*
X173238095Y-126331009D01*
X173238095Y-126331009D02*
X173190476Y-126426247D01*
X173190476Y-126426247D02*
X173190476Y-126664342D01*
X173190476Y-126664342D02*
X173238095Y-126759580D01*
X173238095Y-126759580D02*
X173285714Y-126807200D01*
X173285714Y-126807200D02*
X173380952Y-126854819D01*
X173380952Y-126854819D02*
X173619047Y-126854819D01*
X173619047Y-126854819D02*
X173714285Y-126807200D01*
X173714285Y-126807200D02*
X173761904Y-126759580D01*
X172857142Y-125854819D02*
X172190476Y-125854819D01*
X172190476Y-125854819D02*
X172619047Y-126854819D01*
X191542857Y-98459580D02*
X191590476Y-98507200D01*
X191590476Y-98507200D02*
X191733333Y-98554819D01*
X191733333Y-98554819D02*
X191828571Y-98554819D01*
X191828571Y-98554819D02*
X191971428Y-98507200D01*
X191971428Y-98507200D02*
X192066666Y-98411961D01*
X192066666Y-98411961D02*
X192114285Y-98316723D01*
X192114285Y-98316723D02*
X192161904Y-98126247D01*
X192161904Y-98126247D02*
X192161904Y-97983390D01*
X192161904Y-97983390D02*
X192114285Y-97792914D01*
X192114285Y-97792914D02*
X192066666Y-97697676D01*
X192066666Y-97697676D02*
X191971428Y-97602438D01*
X191971428Y-97602438D02*
X191828571Y-97554819D01*
X191828571Y-97554819D02*
X191733333Y-97554819D01*
X191733333Y-97554819D02*
X191590476Y-97602438D01*
X191590476Y-97602438D02*
X191542857Y-97650057D01*
X190590476Y-98554819D02*
X191161904Y-98554819D01*
X190876190Y-98554819D02*
X190876190Y-97554819D01*
X190876190Y-97554819D02*
X190971428Y-97697676D01*
X190971428Y-97697676D02*
X191066666Y-97792914D01*
X191066666Y-97792914D02*
X191161904Y-97840533D01*
X190019047Y-97983390D02*
X190114285Y-97935771D01*
X190114285Y-97935771D02*
X190161904Y-97888152D01*
X190161904Y-97888152D02*
X190209523Y-97792914D01*
X190209523Y-97792914D02*
X190209523Y-97745295D01*
X190209523Y-97745295D02*
X190161904Y-97650057D01*
X190161904Y-97650057D02*
X190114285Y-97602438D01*
X190114285Y-97602438D02*
X190019047Y-97554819D01*
X190019047Y-97554819D02*
X189828571Y-97554819D01*
X189828571Y-97554819D02*
X189733333Y-97602438D01*
X189733333Y-97602438D02*
X189685714Y-97650057D01*
X189685714Y-97650057D02*
X189638095Y-97745295D01*
X189638095Y-97745295D02*
X189638095Y-97792914D01*
X189638095Y-97792914D02*
X189685714Y-97888152D01*
X189685714Y-97888152D02*
X189733333Y-97935771D01*
X189733333Y-97935771D02*
X189828571Y-97983390D01*
X189828571Y-97983390D02*
X190019047Y-97983390D01*
X190019047Y-97983390D02*
X190114285Y-98031009D01*
X190114285Y-98031009D02*
X190161904Y-98078628D01*
X190161904Y-98078628D02*
X190209523Y-98173866D01*
X190209523Y-98173866D02*
X190209523Y-98364342D01*
X190209523Y-98364342D02*
X190161904Y-98459580D01*
X190161904Y-98459580D02*
X190114285Y-98507200D01*
X190114285Y-98507200D02*
X190019047Y-98554819D01*
X190019047Y-98554819D02*
X189828571Y-98554819D01*
X189828571Y-98554819D02*
X189733333Y-98507200D01*
X189733333Y-98507200D02*
X189685714Y-98459580D01*
X189685714Y-98459580D02*
X189638095Y-98364342D01*
X189638095Y-98364342D02*
X189638095Y-98173866D01*
X189638095Y-98173866D02*
X189685714Y-98078628D01*
X189685714Y-98078628D02*
X189733333Y-98031009D01*
X189733333Y-98031009D02*
X189828571Y-97983390D01*
X111642857Y-136054819D02*
X111976190Y-135578628D01*
X112214285Y-136054819D02*
X112214285Y-135054819D01*
X112214285Y-135054819D02*
X111833333Y-135054819D01*
X111833333Y-135054819D02*
X111738095Y-135102438D01*
X111738095Y-135102438D02*
X111690476Y-135150057D01*
X111690476Y-135150057D02*
X111642857Y-135245295D01*
X111642857Y-135245295D02*
X111642857Y-135388152D01*
X111642857Y-135388152D02*
X111690476Y-135483390D01*
X111690476Y-135483390D02*
X111738095Y-135531009D01*
X111738095Y-135531009D02*
X111833333Y-135578628D01*
X111833333Y-135578628D02*
X112214285Y-135578628D01*
X111071428Y-135483390D02*
X111166666Y-135435771D01*
X111166666Y-135435771D02*
X111214285Y-135388152D01*
X111214285Y-135388152D02*
X111261904Y-135292914D01*
X111261904Y-135292914D02*
X111261904Y-135245295D01*
X111261904Y-135245295D02*
X111214285Y-135150057D01*
X111214285Y-135150057D02*
X111166666Y-135102438D01*
X111166666Y-135102438D02*
X111071428Y-135054819D01*
X111071428Y-135054819D02*
X110880952Y-135054819D01*
X110880952Y-135054819D02*
X110785714Y-135102438D01*
X110785714Y-135102438D02*
X110738095Y-135150057D01*
X110738095Y-135150057D02*
X110690476Y-135245295D01*
X110690476Y-135245295D02*
X110690476Y-135292914D01*
X110690476Y-135292914D02*
X110738095Y-135388152D01*
X110738095Y-135388152D02*
X110785714Y-135435771D01*
X110785714Y-135435771D02*
X110880952Y-135483390D01*
X110880952Y-135483390D02*
X111071428Y-135483390D01*
X111071428Y-135483390D02*
X111166666Y-135531009D01*
X111166666Y-135531009D02*
X111214285Y-135578628D01*
X111214285Y-135578628D02*
X111261904Y-135673866D01*
X111261904Y-135673866D02*
X111261904Y-135864342D01*
X111261904Y-135864342D02*
X111214285Y-135959580D01*
X111214285Y-135959580D02*
X111166666Y-136007200D01*
X111166666Y-136007200D02*
X111071428Y-136054819D01*
X111071428Y-136054819D02*
X110880952Y-136054819D01*
X110880952Y-136054819D02*
X110785714Y-136007200D01*
X110785714Y-136007200D02*
X110738095Y-135959580D01*
X110738095Y-135959580D02*
X110690476Y-135864342D01*
X110690476Y-135864342D02*
X110690476Y-135673866D01*
X110690476Y-135673866D02*
X110738095Y-135578628D01*
X110738095Y-135578628D02*
X110785714Y-135531009D01*
X110785714Y-135531009D02*
X110880952Y-135483390D01*
X109785714Y-135054819D02*
X110261904Y-135054819D01*
X110261904Y-135054819D02*
X110309523Y-135531009D01*
X110309523Y-135531009D02*
X110261904Y-135483390D01*
X110261904Y-135483390D02*
X110166666Y-135435771D01*
X110166666Y-135435771D02*
X109928571Y-135435771D01*
X109928571Y-135435771D02*
X109833333Y-135483390D01*
X109833333Y-135483390D02*
X109785714Y-135531009D01*
X109785714Y-135531009D02*
X109738095Y-135626247D01*
X109738095Y-135626247D02*
X109738095Y-135864342D01*
X109738095Y-135864342D02*
X109785714Y-135959580D01*
X109785714Y-135959580D02*
X109833333Y-136007200D01*
X109833333Y-136007200D02*
X109928571Y-136054819D01*
X109928571Y-136054819D02*
X110166666Y-136054819D01*
X110166666Y-136054819D02*
X110261904Y-136007200D01*
X110261904Y-136007200D02*
X110309523Y-135959580D01*
X129366666Y-121759580D02*
X129414285Y-121807200D01*
X129414285Y-121807200D02*
X129557142Y-121854819D01*
X129557142Y-121854819D02*
X129652380Y-121854819D01*
X129652380Y-121854819D02*
X129795237Y-121807200D01*
X129795237Y-121807200D02*
X129890475Y-121711961D01*
X129890475Y-121711961D02*
X129938094Y-121616723D01*
X129938094Y-121616723D02*
X129985713Y-121426247D01*
X129985713Y-121426247D02*
X129985713Y-121283390D01*
X129985713Y-121283390D02*
X129938094Y-121092914D01*
X129938094Y-121092914D02*
X129890475Y-120997676D01*
X129890475Y-120997676D02*
X129795237Y-120902438D01*
X129795237Y-120902438D02*
X129652380Y-120854819D01*
X129652380Y-120854819D02*
X129557142Y-120854819D01*
X129557142Y-120854819D02*
X129414285Y-120902438D01*
X129414285Y-120902438D02*
X129366666Y-120950057D01*
X128509523Y-120854819D02*
X128699999Y-120854819D01*
X128699999Y-120854819D02*
X128795237Y-120902438D01*
X128795237Y-120902438D02*
X128842856Y-120950057D01*
X128842856Y-120950057D02*
X128938094Y-121092914D01*
X128938094Y-121092914D02*
X128985713Y-121283390D01*
X128985713Y-121283390D02*
X128985713Y-121664342D01*
X128985713Y-121664342D02*
X128938094Y-121759580D01*
X128938094Y-121759580D02*
X128890475Y-121807200D01*
X128890475Y-121807200D02*
X128795237Y-121854819D01*
X128795237Y-121854819D02*
X128604761Y-121854819D01*
X128604761Y-121854819D02*
X128509523Y-121807200D01*
X128509523Y-121807200D02*
X128461904Y-121759580D01*
X128461904Y-121759580D02*
X128414285Y-121664342D01*
X128414285Y-121664342D02*
X128414285Y-121426247D01*
X128414285Y-121426247D02*
X128461904Y-121331009D01*
X128461904Y-121331009D02*
X128509523Y-121283390D01*
X128509523Y-121283390D02*
X128604761Y-121235771D01*
X128604761Y-121235771D02*
X128795237Y-121235771D01*
X128795237Y-121235771D02*
X128890475Y-121283390D01*
X128890475Y-121283390D02*
X128938094Y-121331009D01*
X128938094Y-121331009D02*
X128985713Y-121426247D01*
X171842857Y-110159580D02*
X171890476Y-110207200D01*
X171890476Y-110207200D02*
X172033333Y-110254819D01*
X172033333Y-110254819D02*
X172128571Y-110254819D01*
X172128571Y-110254819D02*
X172271428Y-110207200D01*
X172271428Y-110207200D02*
X172366666Y-110111961D01*
X172366666Y-110111961D02*
X172414285Y-110016723D01*
X172414285Y-110016723D02*
X172461904Y-109826247D01*
X172461904Y-109826247D02*
X172461904Y-109683390D01*
X172461904Y-109683390D02*
X172414285Y-109492914D01*
X172414285Y-109492914D02*
X172366666Y-109397676D01*
X172366666Y-109397676D02*
X172271428Y-109302438D01*
X172271428Y-109302438D02*
X172128571Y-109254819D01*
X172128571Y-109254819D02*
X172033333Y-109254819D01*
X172033333Y-109254819D02*
X171890476Y-109302438D01*
X171890476Y-109302438D02*
X171842857Y-109350057D01*
X171461904Y-109350057D02*
X171414285Y-109302438D01*
X171414285Y-109302438D02*
X171319047Y-109254819D01*
X171319047Y-109254819D02*
X171080952Y-109254819D01*
X171080952Y-109254819D02*
X170985714Y-109302438D01*
X170985714Y-109302438D02*
X170938095Y-109350057D01*
X170938095Y-109350057D02*
X170890476Y-109445295D01*
X170890476Y-109445295D02*
X170890476Y-109540533D01*
X170890476Y-109540533D02*
X170938095Y-109683390D01*
X170938095Y-109683390D02*
X171509523Y-110254819D01*
X171509523Y-110254819D02*
X170890476Y-110254819D01*
X169985714Y-109254819D02*
X170461904Y-109254819D01*
X170461904Y-109254819D02*
X170509523Y-109731009D01*
X170509523Y-109731009D02*
X170461904Y-109683390D01*
X170461904Y-109683390D02*
X170366666Y-109635771D01*
X170366666Y-109635771D02*
X170128571Y-109635771D01*
X170128571Y-109635771D02*
X170033333Y-109683390D01*
X170033333Y-109683390D02*
X169985714Y-109731009D01*
X169985714Y-109731009D02*
X169938095Y-109826247D01*
X169938095Y-109826247D02*
X169938095Y-110064342D01*
X169938095Y-110064342D02*
X169985714Y-110159580D01*
X169985714Y-110159580D02*
X170033333Y-110207200D01*
X170033333Y-110207200D02*
X170128571Y-110254819D01*
X170128571Y-110254819D02*
X170366666Y-110254819D01*
X170366666Y-110254819D02*
X170461904Y-110207200D01*
X170461904Y-110207200D02*
X170509523Y-110159580D01*
X127342857Y-137854819D02*
X127676190Y-137378628D01*
X127914285Y-137854819D02*
X127914285Y-136854819D01*
X127914285Y-136854819D02*
X127533333Y-136854819D01*
X127533333Y-136854819D02*
X127438095Y-136902438D01*
X127438095Y-136902438D02*
X127390476Y-136950057D01*
X127390476Y-136950057D02*
X127342857Y-137045295D01*
X127342857Y-137045295D02*
X127342857Y-137188152D01*
X127342857Y-137188152D02*
X127390476Y-137283390D01*
X127390476Y-137283390D02*
X127438095Y-137331009D01*
X127438095Y-137331009D02*
X127533333Y-137378628D01*
X127533333Y-137378628D02*
X127914285Y-137378628D01*
X126866666Y-137854819D02*
X126676190Y-137854819D01*
X126676190Y-137854819D02*
X126580952Y-137807200D01*
X126580952Y-137807200D02*
X126533333Y-137759580D01*
X126533333Y-137759580D02*
X126438095Y-137616723D01*
X126438095Y-137616723D02*
X126390476Y-137426247D01*
X126390476Y-137426247D02*
X126390476Y-137045295D01*
X126390476Y-137045295D02*
X126438095Y-136950057D01*
X126438095Y-136950057D02*
X126485714Y-136902438D01*
X126485714Y-136902438D02*
X126580952Y-136854819D01*
X126580952Y-136854819D02*
X126771428Y-136854819D01*
X126771428Y-136854819D02*
X126866666Y-136902438D01*
X126866666Y-136902438D02*
X126914285Y-136950057D01*
X126914285Y-136950057D02*
X126961904Y-137045295D01*
X126961904Y-137045295D02*
X126961904Y-137283390D01*
X126961904Y-137283390D02*
X126914285Y-137378628D01*
X126914285Y-137378628D02*
X126866666Y-137426247D01*
X126866666Y-137426247D02*
X126771428Y-137473866D01*
X126771428Y-137473866D02*
X126580952Y-137473866D01*
X126580952Y-137473866D02*
X126485714Y-137426247D01*
X126485714Y-137426247D02*
X126438095Y-137378628D01*
X126438095Y-137378628D02*
X126390476Y-137283390D01*
X125914285Y-137854819D02*
X125723809Y-137854819D01*
X125723809Y-137854819D02*
X125628571Y-137807200D01*
X125628571Y-137807200D02*
X125580952Y-137759580D01*
X125580952Y-137759580D02*
X125485714Y-137616723D01*
X125485714Y-137616723D02*
X125438095Y-137426247D01*
X125438095Y-137426247D02*
X125438095Y-137045295D01*
X125438095Y-137045295D02*
X125485714Y-136950057D01*
X125485714Y-136950057D02*
X125533333Y-136902438D01*
X125533333Y-136902438D02*
X125628571Y-136854819D01*
X125628571Y-136854819D02*
X125819047Y-136854819D01*
X125819047Y-136854819D02*
X125914285Y-136902438D01*
X125914285Y-136902438D02*
X125961904Y-136950057D01*
X125961904Y-136950057D02*
X126009523Y-137045295D01*
X126009523Y-137045295D02*
X126009523Y-137283390D01*
X126009523Y-137283390D02*
X125961904Y-137378628D01*
X125961904Y-137378628D02*
X125914285Y-137426247D01*
X125914285Y-137426247D02*
X125819047Y-137473866D01*
X125819047Y-137473866D02*
X125628571Y-137473866D01*
X125628571Y-137473866D02*
X125533333Y-137426247D01*
X125533333Y-137426247D02*
X125485714Y-137378628D01*
X125485714Y-137378628D02*
X125438095Y-137283390D01*
X97842857Y-140254819D02*
X98176190Y-139778628D01*
X98414285Y-140254819D02*
X98414285Y-139254819D01*
X98414285Y-139254819D02*
X98033333Y-139254819D01*
X98033333Y-139254819D02*
X97938095Y-139302438D01*
X97938095Y-139302438D02*
X97890476Y-139350057D01*
X97890476Y-139350057D02*
X97842857Y-139445295D01*
X97842857Y-139445295D02*
X97842857Y-139588152D01*
X97842857Y-139588152D02*
X97890476Y-139683390D01*
X97890476Y-139683390D02*
X97938095Y-139731009D01*
X97938095Y-139731009D02*
X98033333Y-139778628D01*
X98033333Y-139778628D02*
X98414285Y-139778628D01*
X97271428Y-139683390D02*
X97366666Y-139635771D01*
X97366666Y-139635771D02*
X97414285Y-139588152D01*
X97414285Y-139588152D02*
X97461904Y-139492914D01*
X97461904Y-139492914D02*
X97461904Y-139445295D01*
X97461904Y-139445295D02*
X97414285Y-139350057D01*
X97414285Y-139350057D02*
X97366666Y-139302438D01*
X97366666Y-139302438D02*
X97271428Y-139254819D01*
X97271428Y-139254819D02*
X97080952Y-139254819D01*
X97080952Y-139254819D02*
X96985714Y-139302438D01*
X96985714Y-139302438D02*
X96938095Y-139350057D01*
X96938095Y-139350057D02*
X96890476Y-139445295D01*
X96890476Y-139445295D02*
X96890476Y-139492914D01*
X96890476Y-139492914D02*
X96938095Y-139588152D01*
X96938095Y-139588152D02*
X96985714Y-139635771D01*
X96985714Y-139635771D02*
X97080952Y-139683390D01*
X97080952Y-139683390D02*
X97271428Y-139683390D01*
X97271428Y-139683390D02*
X97366666Y-139731009D01*
X97366666Y-139731009D02*
X97414285Y-139778628D01*
X97414285Y-139778628D02*
X97461904Y-139873866D01*
X97461904Y-139873866D02*
X97461904Y-140064342D01*
X97461904Y-140064342D02*
X97414285Y-140159580D01*
X97414285Y-140159580D02*
X97366666Y-140207200D01*
X97366666Y-140207200D02*
X97271428Y-140254819D01*
X97271428Y-140254819D02*
X97080952Y-140254819D01*
X97080952Y-140254819D02*
X96985714Y-140207200D01*
X96985714Y-140207200D02*
X96938095Y-140159580D01*
X96938095Y-140159580D02*
X96890476Y-140064342D01*
X96890476Y-140064342D02*
X96890476Y-139873866D01*
X96890476Y-139873866D02*
X96938095Y-139778628D01*
X96938095Y-139778628D02*
X96985714Y-139731009D01*
X96985714Y-139731009D02*
X97080952Y-139683390D01*
X96509523Y-139350057D02*
X96461904Y-139302438D01*
X96461904Y-139302438D02*
X96366666Y-139254819D01*
X96366666Y-139254819D02*
X96128571Y-139254819D01*
X96128571Y-139254819D02*
X96033333Y-139302438D01*
X96033333Y-139302438D02*
X95985714Y-139350057D01*
X95985714Y-139350057D02*
X95938095Y-139445295D01*
X95938095Y-139445295D02*
X95938095Y-139540533D01*
X95938095Y-139540533D02*
X95985714Y-139683390D01*
X95985714Y-139683390D02*
X96557142Y-140254819D01*
X96557142Y-140254819D02*
X95938095Y-140254819D01*
X130342857Y-112354819D02*
X130676190Y-111878628D01*
X130914285Y-112354819D02*
X130914285Y-111354819D01*
X130914285Y-111354819D02*
X130533333Y-111354819D01*
X130533333Y-111354819D02*
X130438095Y-111402438D01*
X130438095Y-111402438D02*
X130390476Y-111450057D01*
X130390476Y-111450057D02*
X130342857Y-111545295D01*
X130342857Y-111545295D02*
X130342857Y-111688152D01*
X130342857Y-111688152D02*
X130390476Y-111783390D01*
X130390476Y-111783390D02*
X130438095Y-111831009D01*
X130438095Y-111831009D02*
X130533333Y-111878628D01*
X130533333Y-111878628D02*
X130914285Y-111878628D01*
X129961904Y-111450057D02*
X129914285Y-111402438D01*
X129914285Y-111402438D02*
X129819047Y-111354819D01*
X129819047Y-111354819D02*
X129580952Y-111354819D01*
X129580952Y-111354819D02*
X129485714Y-111402438D01*
X129485714Y-111402438D02*
X129438095Y-111450057D01*
X129438095Y-111450057D02*
X129390476Y-111545295D01*
X129390476Y-111545295D02*
X129390476Y-111640533D01*
X129390476Y-111640533D02*
X129438095Y-111783390D01*
X129438095Y-111783390D02*
X130009523Y-112354819D01*
X130009523Y-112354819D02*
X129390476Y-112354819D01*
X129009523Y-111450057D02*
X128961904Y-111402438D01*
X128961904Y-111402438D02*
X128866666Y-111354819D01*
X128866666Y-111354819D02*
X128628571Y-111354819D01*
X128628571Y-111354819D02*
X128533333Y-111402438D01*
X128533333Y-111402438D02*
X128485714Y-111450057D01*
X128485714Y-111450057D02*
X128438095Y-111545295D01*
X128438095Y-111545295D02*
X128438095Y-111640533D01*
X128438095Y-111640533D02*
X128485714Y-111783390D01*
X128485714Y-111783390D02*
X129057142Y-112354819D01*
X129057142Y-112354819D02*
X128438095Y-112354819D01*
X118242857Y-93559580D02*
X118290476Y-93607200D01*
X118290476Y-93607200D02*
X118433333Y-93654819D01*
X118433333Y-93654819D02*
X118528571Y-93654819D01*
X118528571Y-93654819D02*
X118671428Y-93607200D01*
X118671428Y-93607200D02*
X118766666Y-93511961D01*
X118766666Y-93511961D02*
X118814285Y-93416723D01*
X118814285Y-93416723D02*
X118861904Y-93226247D01*
X118861904Y-93226247D02*
X118861904Y-93083390D01*
X118861904Y-93083390D02*
X118814285Y-92892914D01*
X118814285Y-92892914D02*
X118766666Y-92797676D01*
X118766666Y-92797676D02*
X118671428Y-92702438D01*
X118671428Y-92702438D02*
X118528571Y-92654819D01*
X118528571Y-92654819D02*
X118433333Y-92654819D01*
X118433333Y-92654819D02*
X118290476Y-92702438D01*
X118290476Y-92702438D02*
X118242857Y-92750057D01*
X117385714Y-92988152D02*
X117385714Y-93654819D01*
X117623809Y-92607200D02*
X117861904Y-93321485D01*
X117861904Y-93321485D02*
X117242857Y-93321485D01*
X116957142Y-92654819D02*
X116338095Y-92654819D01*
X116338095Y-92654819D02*
X116671428Y-93035771D01*
X116671428Y-93035771D02*
X116528571Y-93035771D01*
X116528571Y-93035771D02*
X116433333Y-93083390D01*
X116433333Y-93083390D02*
X116385714Y-93131009D01*
X116385714Y-93131009D02*
X116338095Y-93226247D01*
X116338095Y-93226247D02*
X116338095Y-93464342D01*
X116338095Y-93464342D02*
X116385714Y-93559580D01*
X116385714Y-93559580D02*
X116433333Y-93607200D01*
X116433333Y-93607200D02*
X116528571Y-93654819D01*
X116528571Y-93654819D02*
X116814285Y-93654819D01*
X116814285Y-93654819D02*
X116909523Y-93607200D01*
X116909523Y-93607200D02*
X116957142Y-93559580D01*
X140442857Y-55259580D02*
X140490476Y-55307200D01*
X140490476Y-55307200D02*
X140633333Y-55354819D01*
X140633333Y-55354819D02*
X140728571Y-55354819D01*
X140728571Y-55354819D02*
X140871428Y-55307200D01*
X140871428Y-55307200D02*
X140966666Y-55211961D01*
X140966666Y-55211961D02*
X141014285Y-55116723D01*
X141014285Y-55116723D02*
X141061904Y-54926247D01*
X141061904Y-54926247D02*
X141061904Y-54783390D01*
X141061904Y-54783390D02*
X141014285Y-54592914D01*
X141014285Y-54592914D02*
X140966666Y-54497676D01*
X140966666Y-54497676D02*
X140871428Y-54402438D01*
X140871428Y-54402438D02*
X140728571Y-54354819D01*
X140728571Y-54354819D02*
X140633333Y-54354819D01*
X140633333Y-54354819D02*
X140490476Y-54402438D01*
X140490476Y-54402438D02*
X140442857Y-54450057D01*
X139490476Y-55354819D02*
X140061904Y-55354819D01*
X139776190Y-55354819D02*
X139776190Y-54354819D01*
X139776190Y-54354819D02*
X139871428Y-54497676D01*
X139871428Y-54497676D02*
X139966666Y-54592914D01*
X139966666Y-54592914D02*
X140061904Y-54640533D01*
X138633333Y-54354819D02*
X138823809Y-54354819D01*
X138823809Y-54354819D02*
X138919047Y-54402438D01*
X138919047Y-54402438D02*
X138966666Y-54450057D01*
X138966666Y-54450057D02*
X139061904Y-54592914D01*
X139061904Y-54592914D02*
X139109523Y-54783390D01*
X139109523Y-54783390D02*
X139109523Y-55164342D01*
X139109523Y-55164342D02*
X139061904Y-55259580D01*
X139061904Y-55259580D02*
X139014285Y-55307200D01*
X139014285Y-55307200D02*
X138919047Y-55354819D01*
X138919047Y-55354819D02*
X138728571Y-55354819D01*
X138728571Y-55354819D02*
X138633333Y-55307200D01*
X138633333Y-55307200D02*
X138585714Y-55259580D01*
X138585714Y-55259580D02*
X138538095Y-55164342D01*
X138538095Y-55164342D02*
X138538095Y-54926247D01*
X138538095Y-54926247D02*
X138585714Y-54831009D01*
X138585714Y-54831009D02*
X138633333Y-54783390D01*
X138633333Y-54783390D02*
X138728571Y-54735771D01*
X138728571Y-54735771D02*
X138919047Y-54735771D01*
X138919047Y-54735771D02*
X139014285Y-54783390D01*
X139014285Y-54783390D02*
X139061904Y-54831009D01*
X139061904Y-54831009D02*
X139109523Y-54926247D01*
X118016666Y-98879580D02*
X118064285Y-98927200D01*
X118064285Y-98927200D02*
X118207142Y-98974819D01*
X118207142Y-98974819D02*
X118302380Y-98974819D01*
X118302380Y-98974819D02*
X118445237Y-98927200D01*
X118445237Y-98927200D02*
X118540475Y-98831961D01*
X118540475Y-98831961D02*
X118588094Y-98736723D01*
X118588094Y-98736723D02*
X118635713Y-98546247D01*
X118635713Y-98546247D02*
X118635713Y-98403390D01*
X118635713Y-98403390D02*
X118588094Y-98212914D01*
X118588094Y-98212914D02*
X118540475Y-98117676D01*
X118540475Y-98117676D02*
X118445237Y-98022438D01*
X118445237Y-98022438D02*
X118302380Y-97974819D01*
X118302380Y-97974819D02*
X118207142Y-97974819D01*
X118207142Y-97974819D02*
X118064285Y-98022438D01*
X118064285Y-98022438D02*
X118016666Y-98070057D01*
X117683332Y-97974819D02*
X117016666Y-97974819D01*
X117016666Y-97974819D02*
X117445237Y-98974819D01*
X100242857Y-77154819D02*
X100576190Y-76678628D01*
X100814285Y-77154819D02*
X100814285Y-76154819D01*
X100814285Y-76154819D02*
X100433333Y-76154819D01*
X100433333Y-76154819D02*
X100338095Y-76202438D01*
X100338095Y-76202438D02*
X100290476Y-76250057D01*
X100290476Y-76250057D02*
X100242857Y-76345295D01*
X100242857Y-76345295D02*
X100242857Y-76488152D01*
X100242857Y-76488152D02*
X100290476Y-76583390D01*
X100290476Y-76583390D02*
X100338095Y-76631009D01*
X100338095Y-76631009D02*
X100433333Y-76678628D01*
X100433333Y-76678628D02*
X100814285Y-76678628D01*
X99385714Y-76154819D02*
X99576190Y-76154819D01*
X99576190Y-76154819D02*
X99671428Y-76202438D01*
X99671428Y-76202438D02*
X99719047Y-76250057D01*
X99719047Y-76250057D02*
X99814285Y-76392914D01*
X99814285Y-76392914D02*
X99861904Y-76583390D01*
X99861904Y-76583390D02*
X99861904Y-76964342D01*
X99861904Y-76964342D02*
X99814285Y-77059580D01*
X99814285Y-77059580D02*
X99766666Y-77107200D01*
X99766666Y-77107200D02*
X99671428Y-77154819D01*
X99671428Y-77154819D02*
X99480952Y-77154819D01*
X99480952Y-77154819D02*
X99385714Y-77107200D01*
X99385714Y-77107200D02*
X99338095Y-77059580D01*
X99338095Y-77059580D02*
X99290476Y-76964342D01*
X99290476Y-76964342D02*
X99290476Y-76726247D01*
X99290476Y-76726247D02*
X99338095Y-76631009D01*
X99338095Y-76631009D02*
X99385714Y-76583390D01*
X99385714Y-76583390D02*
X99480952Y-76535771D01*
X99480952Y-76535771D02*
X99671428Y-76535771D01*
X99671428Y-76535771D02*
X99766666Y-76583390D01*
X99766666Y-76583390D02*
X99814285Y-76631009D01*
X99814285Y-76631009D02*
X99861904Y-76726247D01*
X98338095Y-77154819D02*
X98909523Y-77154819D01*
X98623809Y-77154819D02*
X98623809Y-76154819D01*
X98623809Y-76154819D02*
X98719047Y-76297676D01*
X98719047Y-76297676D02*
X98814285Y-76392914D01*
X98814285Y-76392914D02*
X98909523Y-76440533D01*
X177542857Y-75959580D02*
X177590476Y-76007200D01*
X177590476Y-76007200D02*
X177733333Y-76054819D01*
X177733333Y-76054819D02*
X177828571Y-76054819D01*
X177828571Y-76054819D02*
X177971428Y-76007200D01*
X177971428Y-76007200D02*
X178066666Y-75911961D01*
X178066666Y-75911961D02*
X178114285Y-75816723D01*
X178114285Y-75816723D02*
X178161904Y-75626247D01*
X178161904Y-75626247D02*
X178161904Y-75483390D01*
X178161904Y-75483390D02*
X178114285Y-75292914D01*
X178114285Y-75292914D02*
X178066666Y-75197676D01*
X178066666Y-75197676D02*
X177971428Y-75102438D01*
X177971428Y-75102438D02*
X177828571Y-75054819D01*
X177828571Y-75054819D02*
X177733333Y-75054819D01*
X177733333Y-75054819D02*
X177590476Y-75102438D01*
X177590476Y-75102438D02*
X177542857Y-75150057D01*
X177161904Y-75150057D02*
X177114285Y-75102438D01*
X177114285Y-75102438D02*
X177019047Y-75054819D01*
X177019047Y-75054819D02*
X176780952Y-75054819D01*
X176780952Y-75054819D02*
X176685714Y-75102438D01*
X176685714Y-75102438D02*
X176638095Y-75150057D01*
X176638095Y-75150057D02*
X176590476Y-75245295D01*
X176590476Y-75245295D02*
X176590476Y-75340533D01*
X176590476Y-75340533D02*
X176638095Y-75483390D01*
X176638095Y-75483390D02*
X177209523Y-76054819D01*
X177209523Y-76054819D02*
X176590476Y-76054819D01*
X175638095Y-76054819D02*
X176209523Y-76054819D01*
X175923809Y-76054819D02*
X175923809Y-75054819D01*
X175923809Y-75054819D02*
X176019047Y-75197676D01*
X176019047Y-75197676D02*
X176114285Y-75292914D01*
X176114285Y-75292914D02*
X176209523Y-75340533D01*
X110866666Y-66059580D02*
X110914285Y-66107200D01*
X110914285Y-66107200D02*
X111057142Y-66154819D01*
X111057142Y-66154819D02*
X111152380Y-66154819D01*
X111152380Y-66154819D02*
X111295237Y-66107200D01*
X111295237Y-66107200D02*
X111390475Y-66011961D01*
X111390475Y-66011961D02*
X111438094Y-65916723D01*
X111438094Y-65916723D02*
X111485713Y-65726247D01*
X111485713Y-65726247D02*
X111485713Y-65583390D01*
X111485713Y-65583390D02*
X111438094Y-65392914D01*
X111438094Y-65392914D02*
X111390475Y-65297676D01*
X111390475Y-65297676D02*
X111295237Y-65202438D01*
X111295237Y-65202438D02*
X111152380Y-65154819D01*
X111152380Y-65154819D02*
X111057142Y-65154819D01*
X111057142Y-65154819D02*
X110914285Y-65202438D01*
X110914285Y-65202438D02*
X110866666Y-65250057D01*
X109914285Y-66154819D02*
X110485713Y-66154819D01*
X110199999Y-66154819D02*
X110199999Y-65154819D01*
X110199999Y-65154819D02*
X110295237Y-65297676D01*
X110295237Y-65297676D02*
X110390475Y-65392914D01*
X110390475Y-65392914D02*
X110485713Y-65440533D01*
%TO.C,C19*%
D11*
X150788748Y-113565000D02*
X151311252Y-113565000D01*
X150788748Y-115035000D02*
X151311252Y-115035000D01*
%TO.C,R35*%
X189222936Y-108165000D02*
X189677064Y-108165000D01*
X189222936Y-109635000D02*
X189677064Y-109635000D01*
%TO.C,C51*%
X183115000Y-117238748D02*
X183115000Y-117761252D01*
X184585000Y-117238748D02*
X184585000Y-117761252D01*
%TO.C,C4*%
X124415000Y-68461252D02*
X124415000Y-67938748D01*
X125885000Y-68461252D02*
X125885000Y-67938748D01*
%TO.C,C50*%
X176315000Y-137038748D02*
X176315000Y-137561252D01*
X177785000Y-137038748D02*
X177785000Y-137561252D01*
%TO.C,R80*%
X104377064Y-138865000D02*
X103922936Y-138865000D01*
X104377064Y-140335000D02*
X103922936Y-140335000D01*
%TO.C,R84*%
X107715000Y-138372936D02*
X107715000Y-138827064D01*
X109185000Y-138372936D02*
X109185000Y-138827064D01*
%TO.C,C45*%
X118895543Y-117984990D02*
X119265010Y-118354457D01*
X119934990Y-116945543D02*
X120304457Y-117315010D01*
%TO.C,R23*%
X133315000Y-110122936D02*
X133315000Y-110577064D01*
X134785000Y-110122936D02*
X134785000Y-110577064D01*
%TO.C,R8*%
X98865000Y-93522936D02*
X98865000Y-93977064D01*
X100335000Y-93522936D02*
X100335000Y-93977064D01*
%TO.C,R87*%
X94077064Y-136765000D02*
X93622936Y-136765000D01*
X94077064Y-138235000D02*
X93622936Y-138235000D01*
%TO.C,Y2*%
X107248043Y-113641334D02*
X107262186Y-112778663D01*
X107262186Y-112778663D02*
X107304613Y-112736237D01*
X107601598Y-113994886D02*
X108464269Y-113980743D01*
X108464269Y-113980743D02*
X108506694Y-113938318D01*
X108138999Y-114532287D02*
X106710643Y-113103932D01*
X102807414Y-117007161D01*
X104235769Y-118435517D01*
X108138999Y-114532287D01*
%TO.C,R59*%
X100077064Y-84815000D02*
X99622936Y-84815000D01*
X100077064Y-86285000D02*
X99622936Y-86285000D01*
%TO.C,U15*%
X96690000Y-79240000D02*
X96690000Y-79335000D01*
X96690000Y-84265000D02*
X96690000Y-84360000D01*
X96690000Y-84360000D02*
X100810000Y-84360000D01*
X100810000Y-79240000D02*
X96690000Y-79240000D01*
X100810000Y-79335000D02*
X100810000Y-79240000D01*
X100810000Y-84360000D02*
X100810000Y-84265000D01*
X96150000Y-84270000D02*
X95910000Y-84600000D01*
X96390000Y-84600000D01*
X96150000Y-84270000D01*
G36*
X96390000Y-84600000D02*
G01*
X95910000Y-84600000D01*
X96150000Y-84270000D01*
X96390000Y-84600000D01*
G37*
%TO.C,C59*%
X179715000Y-130438748D02*
X179715000Y-130961252D01*
X181185000Y-130438748D02*
X181185000Y-130961252D01*
%TO.C,C48*%
X116815010Y-112004457D02*
X116445543Y-111634990D01*
X117854457Y-110965010D02*
X117484990Y-110595543D01*
%TO.C,R83*%
X104622936Y-133365000D02*
X105077064Y-133365000D01*
X104622936Y-134835000D02*
X105077064Y-134835000D01*
%TO.C,R7*%
X95122936Y-89965000D02*
X95577064Y-89965000D01*
X95122936Y-91435000D02*
X95577064Y-91435000D01*
%TO.C,R65*%
X179422936Y-98965000D02*
X179877064Y-98965000D01*
X179422936Y-100435000D02*
X179877064Y-100435000D01*
%TO.C,R86*%
X104622936Y-135365000D02*
X105077064Y-135365000D01*
X104622936Y-136835000D02*
X105077064Y-136835000D01*
%TO.C,C49*%
X107861252Y-101965000D02*
X107338748Y-101965000D01*
X107861252Y-103435000D02*
X107338748Y-103435000D01*
%TO.C,C14*%
X138915000Y-64998752D02*
X138915000Y-64476248D01*
X140385000Y-64998752D02*
X140385000Y-64476248D01*
%TO.C,Q1*%
X184840000Y-81390000D02*
X184840000Y-81485000D01*
X184840000Y-86415000D02*
X184840000Y-86510000D01*
X184840000Y-86510000D02*
X188960000Y-86510000D01*
X188960000Y-81390000D02*
X184840000Y-81390000D01*
X188960000Y-81485000D02*
X188960000Y-81390000D01*
X188960000Y-86510000D02*
X188960000Y-86415000D01*
X189500000Y-81480000D02*
X189740000Y-81150000D01*
X189260000Y-81150000D01*
X189500000Y-81480000D01*
G36*
X189500000Y-81480000D02*
G01*
X189260000Y-81150000D01*
X189740000Y-81150000D01*
X189500000Y-81480000D01*
G37*
%TO.C,R96*%
X139215000Y-137872936D02*
X139215000Y-138327064D01*
X140685000Y-137872936D02*
X140685000Y-138327064D01*
%TO.C,R81*%
X133577064Y-138365000D02*
X133122936Y-138365000D01*
X133577064Y-139835000D02*
X133122936Y-139835000D01*
%TO.C,C12*%
X107131387Y-116929166D02*
X106761920Y-117298633D01*
X108170834Y-117968613D02*
X107801367Y-118338080D01*
%TO.C,C22*%
X175515000Y-98961252D02*
X175515000Y-98438748D01*
X176985000Y-98961252D02*
X176985000Y-98438748D01*
%TO.C,C44*%
X129115000Y-106388748D02*
X129115000Y-106911252D01*
X130585000Y-106388748D02*
X130585000Y-106911252D01*
%TO.C,C30*%
X178915000Y-138238748D02*
X178915000Y-138761252D01*
X180385000Y-138238748D02*
X180385000Y-138761252D01*
%TO.C,R95*%
X136715000Y-137872936D02*
X136715000Y-138327064D01*
X138185000Y-137872936D02*
X138185000Y-138327064D01*
%TO.C,R3*%
X98615000Y-116572936D02*
X98615000Y-117027064D01*
X100085000Y-116572936D02*
X100085000Y-117027064D01*
%TO.C,C60*%
X181915000Y-130438748D02*
X181915000Y-130961252D01*
X183385000Y-130438748D02*
X183385000Y-130961252D01*
%TO.C,D3*%
X102750000Y-81610000D02*
X102750000Y-74200000D01*
X107050000Y-81610000D02*
X102750000Y-81610000D01*
X107050000Y-81610000D02*
X107050000Y-74200000D01*
%TO.C,R94*%
X123377064Y-138765000D02*
X122922936Y-138765000D01*
X123377064Y-140235000D02*
X122922936Y-140235000D01*
%TO.C,C11*%
X103365010Y-112995543D02*
X102995543Y-113365010D01*
X104404457Y-114034990D02*
X104034990Y-114404457D01*
%TO.C,R16*%
X110433728Y-111473175D02*
X110112611Y-111152058D01*
X111473175Y-110433728D02*
X111152058Y-110112611D01*
%TO.C,R74*%
X176715000Y-130727064D02*
X176715000Y-130272936D01*
X178185000Y-130727064D02*
X178185000Y-130272936D01*
%TO.C,C58*%
X169915000Y-129161252D02*
X169915000Y-128638748D01*
X171385000Y-129161252D02*
X171385000Y-128638748D01*
%TO.C,R97*%
X133722936Y-133065000D02*
X134177064Y-133065000D01*
X133722936Y-134535000D02*
X134177064Y-134535000D01*
%TO.C,R98*%
X133722936Y-135165000D02*
X134177064Y-135165000D01*
X133722936Y-136635000D02*
X134177064Y-136635000D01*
%TO.C,C8*%
X124461252Y-106015000D02*
X123938748Y-106015000D01*
X124461252Y-107485000D02*
X123938748Y-107485000D01*
%TO.C,C57*%
X172115000Y-129161252D02*
X172115000Y-128638748D01*
X173585000Y-129161252D02*
X173585000Y-128638748D01*
%TO.C,D8*%
X197180000Y-114760000D02*
X200120000Y-114760000D01*
X197180000Y-114880000D02*
X200120000Y-114880000D01*
X197180000Y-115000000D02*
X200120000Y-115000000D01*
X198650000Y-112960000D02*
X198650000Y-113980000D01*
X198650000Y-120440000D02*
X198650000Y-119420000D01*
X197180000Y-113980000D02*
X200120000Y-113980000D01*
X200120000Y-119420000D01*
X197180000Y-119420000D01*
X197180000Y-113980000D01*
%TO.C,C18*%
X190165000Y-95711252D02*
X190165000Y-95188748D01*
X191635000Y-95711252D02*
X191635000Y-95188748D01*
%TO.C,R85*%
X110015000Y-138372936D02*
X110015000Y-138827064D01*
X111485000Y-138372936D02*
X111485000Y-138827064D01*
%TO.C,C6*%
X128315000Y-123638748D02*
X128315000Y-124161252D01*
X129785000Y-123638748D02*
X129785000Y-124161252D01*
%TO.C,C25*%
X170515000Y-107361252D02*
X170515000Y-106838748D01*
X171985000Y-107361252D02*
X171985000Y-106838748D01*
%TO.C,R99*%
X123377064Y-136565000D02*
X122922936Y-136565000D01*
X123377064Y-138035000D02*
X122922936Y-138035000D01*
%TO.C,R82*%
X94077064Y-138965000D02*
X93622936Y-138965000D01*
X94077064Y-140435000D02*
X93622936Y-140435000D01*
%TO.C,R22*%
X128965000Y-114727064D02*
X128965000Y-114272936D01*
X130435000Y-114727064D02*
X130435000Y-114272936D01*
%TO.C,C43*%
X117338748Y-94115000D02*
X117861252Y-94115000D01*
X117338748Y-95585000D02*
X117861252Y-95585000D01*
%TO.C,C16*%
X138915000Y-57226248D02*
X138915000Y-57748752D01*
X140385000Y-57226248D02*
X140385000Y-57748752D01*
%TO.C,C7*%
X118111252Y-99465000D02*
X117588748Y-99465000D01*
X118111252Y-100935000D02*
X117588748Y-100935000D01*
%TO.C,R61*%
X99522936Y-77365000D02*
X99977064Y-77365000D01*
X99522936Y-78835000D02*
X99977064Y-78835000D01*
%TO.C,C21*%
X176115000Y-77838748D02*
X176115000Y-78361252D01*
X177585000Y-77838748D02*
X177585000Y-78361252D01*
%TO.C,C1*%
X109915000Y-68498752D02*
X109915000Y-67976248D01*
X111385000Y-68498752D02*
X111385000Y-67976248D01*
%TD*%
M02*
