M48
; DRILL file KiCad 10.0.4 date 2026-10-05T16:13:35
; FORMAT={-:-/ absolute / metric / decimal}
; #@! TF.CreationDate,2026-10-05T16:13:35+05:00
; #@! TF.GenerationSoftware,Kicad,Pcbnew,10.0.4
; #@! TF.FileFunction,Plated,1,4,PTH
FMAT,2
METRIC
; #@! TA.AperFunction,Plated,PTH,ViaDrill
T1C0.300
; #@! TA.AperFunction,Plated,PTH,ComponentDrill
T2C0.500
; #@! TA.AperFunction,Plated,PTH,ComponentDrill
T3C0.600
; #@! TA.AperFunction,Plated,PTH,ComponentDrill
T4C0.700
; #@! TA.AperFunction,Plated,PTH,ComponentDrill
T5C0.750
; #@! TA.AperFunction,Plated,PTH,ComponentDrill
T6C0.800
; #@! TA.AperFunction,Plated,PTH,ComponentDrill
T7C0.890
; #@! TA.AperFunction,Plated,PTH,ComponentDrill
T8C1.000
; #@! TA.AperFunction,Plated,PTH,ComponentDrill
T9C1.100
; #@! TA.AperFunction,Plated,PTH,ComponentDrill
T10C1.200
; #@! TA.AperFunction,Plated,PTH,ComponentDrill
T11C2.010
%
G90
G05
T1
X92.55Y-133.7
X93.0Y-120.75
X93.05Y-133.2
X93.5Y-120.25
X93.55Y-132.7
X93.75Y-122.6
X93.95Y-119.8
X94.35Y-124.5
X94.35Y-125.5
X94.35Y-126.5
X96.55Y-139.7
X97.35Y-124.5
X98.15Y-82.7
X98.75Y-76.85
X99.35Y-118.8
X99.35Y-119.45
X99.6Y-89.6
X99.6Y-90.35
X99.65Y-82.45
X99.9Y-71.95
X100.55Y-113.85
X100.85Y-105.7
X101.15Y-119.6
X101.4Y-79.2
X101.65Y-91.1
X101.65Y-96.35
X102.25Y-113.1
X103.1Y-94.5
X103.1Y-95.2
X103.4Y-82.95
X103.85Y-133.0
X103.9Y-87.2
X104.3Y-71.7
X104.3Y-72.9
X104.3Y-73.9
X104.3Y-74.9
X105.5Y-71.7
X105.5Y-72.9
X105.5Y-73.9
X105.5Y-74.9
X106.561Y-103.95
X106.85Y-108.9
X107.105Y-104.495
X107.55Y-92.6
X107.7Y-119.334
X108.15Y-70.95
X108.15Y-71.7
X108.2Y-92.6
X108.4Y-63.95
X108.45Y-136.6
X108.5Y-78.5
X108.5Y-79.5
X108.5Y-80.5
X109.15Y-63.95
X109.3Y-78.5
X109.3Y-79.5
X109.3Y-80.5
X109.45Y-98.8
X109.65Y-106.35
X109.9Y-63.95
X110.4Y-112.55
X110.45Y-136.6
X110.5Y-115.55
X110.65Y-70.2
X110.65Y-70.95
X110.65Y-71.7
X111.15Y-107.95
X111.2Y-96.786
X111.65Y-98.7
X111.9Y-108.7
X111.95Y-125.25
X112.15Y-67.2
X112.15Y-95.95
X112.75Y-109.5
X112.85Y-115.55
X112.9Y-67.2
X113.15Y-55.45
X113.15Y-69.7
X113.15Y-70.7
X113.15Y-71.7
X113.35Y-93.4
X113.9Y-55.45
X114.05Y-116.7
X114.15Y-90.7
X114.2Y-94.25
X114.65Y-55.45
X115.4Y-55.45
X115.5Y-94.4
X115.6Y-104.9
X115.65Y-87.2
X115.7Y-111.85
X116.85Y-113.25
X117.45Y-98.6
X117.65Y-90.7
X117.85Y-114.55
X117.9Y-70.7
X117.9Y-71.45
X117.9Y-72.2
X118.6Y-92.6
X118.7Y-98.95
X118.75Y-108.7
X118.75Y-109.8
X118.775Y-88.225
X119.55Y-88.2
X120.3Y-88.2
X120.45Y-95.55
X120.65Y-55.45
X121.375Y-117.35
X121.4Y-55.45
X121.4Y-66.95
X121.4Y-67.7
X121.4Y-68.45
X121.4Y-69.2
X121.4Y-69.95
X121.4Y-70.7
X121.6Y-106.75
X122.15Y-55.45
X122.65Y-125.8
X122.9Y-55.45
X123.4Y-125.8
X123.65Y-93.7
X124.15Y-125.8
X124.75Y-114.9
X125.05Y-118.1
X126.15Y-107.3
X126.3Y-123.25
X127.15Y-79.45
X127.15Y-80.2
X127.15Y-80.95
X127.4Y-93.7
X127.9Y-79.45
X127.9Y-80.2
X127.9Y-80.95
X127.9Y-86.7
X128.85Y-109.25
X129.05Y-125.95
X129.65Y-116.9
X129.85Y-104.65
X131.05Y-107.65
X131.4Y-80.45
X131.4Y-81.2
X131.45Y-102.3
X132.05Y-56.15
X132.15Y-71.2
X133.05Y-95.2
X133.65Y-56.15
X133.95Y-105.2
X134.35Y-56.15
X134.65Y-65.95
X135.4Y-65.2
X135.4Y-72.45
X135.4Y-73.2
X135.65Y-78.35
X135.65Y-87.7
X135.65Y-88.45
X135.65Y-89.2
X135.65Y-89.95
X137.75Y-101.9
X137.75Y-136.0
X137.85Y-110.9
X138.15Y-78.39
X138.3Y-102.45
X138.84Y-78.39
X139.85Y-114.9
X139.85Y-136.1
X142.15Y-85.95
X142.4Y-112.45
X142.85Y-121.9
X142.95Y-136.2
X143.05Y-119.9
X143.05Y-123.9
X143.15Y-54.835
X143.15Y-63.725
X143.15Y-117.95
X143.9Y-54.835
X143.9Y-63.725
X143.9Y-87.95
X143.95Y-142.5
X144.15Y-83.7
X144.75Y-137.3
X144.75Y-138.3
X144.75Y-139.3
X144.9Y-116.45
X145.15Y-83.7
X146.15Y-83.7
X146.45Y-136.5
X146.65Y-81.2
X146.9Y-75.45
X147.4Y-56.105
X147.65Y-75.45
X147.835Y-66.265
X148.345Y-73.95
X148.345Y-74.755
X148.37Y-100.62
X148.495Y-56.105
X149.15Y-55.45
X149.15Y-84.6
X150.65Y-59.95
X150.65Y-60.7
X150.65Y-61.45
X150.65Y-62.2
X150.65Y-62.95
X150.65Y-63.7
X150.65Y-64.45
X150.9Y-66.95
X150.9Y-70.7
X151.15Y-59.45
X151.15Y-64.95
X151.4Y-78.45
X151.65Y-128.3
X151.9Y-59.45
X151.9Y-60.7
X151.9Y-62.2
X151.9Y-63.7
X151.9Y-64.95
X151.9Y-125.2
X152.15Y-117.7
X152.65Y-59.45
X152.65Y-64.95
X153.15Y-70.7
X153.15Y-75.45
X153.4Y-59.45
X153.4Y-60.7
X153.4Y-62.2
X153.4Y-63.7
X153.4Y-64.95
X154.15Y-59.45
X154.15Y-64.95
X154.65Y-73.9
X154.85Y-134.7
X154.9Y-59.45
X154.9Y-60.7
X154.9Y-62.2
X154.9Y-63.7
X154.9Y-64.95
X155.65Y-59.45
X155.65Y-64.95
X155.965Y-73.885
X156.15Y-59.95
X156.15Y-60.7
X156.15Y-61.45
X156.15Y-62.2
X156.15Y-62.95
X156.15Y-63.7
X156.15Y-64.45
X156.45Y-130.7
X156.85Y-128.5
X156.95Y-74.0
X157.25Y-125.3
X157.3Y-132.85
X157.65Y-118.1
X158.25Y-71.0
X159.35Y-136.4
X159.4Y-68.7
X160.65Y-88.45
X161.05Y-129.5
X161.45Y-130.7
X161.65Y-133.9
X161.85Y-128.3
X162.05Y-131.7
X164.4Y-54.835
X164.65Y-140.5
X165.15Y-54.835
X165.4Y-76.7
X165.4Y-83.2
X165.45Y-115.3
X165.45Y-122.1
X165.65Y-65.2
X166.15Y-72.7
X166.45Y-127.9
X166.9Y-76.7
X167.15Y-58.2
X167.15Y-59.88
X167.35Y-133.8
X167.9Y-56.81
X167.9Y-62.95
X167.9Y-76.7
X168.05Y-129.5
X168.05Y-137.7
X168.65Y-56.81
X168.65Y-121.1
X168.9Y-84.7
X169.05Y-123.5
X169.05Y-125.3
X169.85Y-120.3
X170.05Y-106.1
X170.05Y-118.5
X170.18Y-54.73
X170.9Y-54.73
X171.25Y-109.7
X171.98Y-60.62
X172.85Y-131.1
X173.25Y-102.7
X173.4Y-56.81
X173.65Y-112.7
X173.65Y-125.7
X174.05Y-137.9
X175.05Y-127.7
X176.65Y-127.1
X176.65Y-130.3
X177.15Y-63.45
X177.25Y-135.1
X177.4Y-56.7
X177.85Y-114.7
X177.85Y-139.9
X178.25Y-132.7
X178.45Y-112.7
X178.487Y-104.062
X178.65Y-121.3
X179.05Y-126.3
X179.4Y-68.7
X179.4Y-74.95
X179.65Y-109.5
X180.15Y-68.7
X180.15Y-74.95
X180.85Y-128.3
X181.25Y-134.9
X181.65Y-125.9
X181.85Y-119.5
X182.4Y-61.7
X182.65Y-126.7
X182.65Y-137.9
X182.85Y-106.3
X183.15Y-59.7
X183.2Y-138.85
X183.25Y-122.1
X183.9Y-70.2
X184.65Y-109.5
X184.65Y-111.7
X184.885Y-56.185
X184.9Y-73.2
X185.145Y-113.205
X185.25Y-142.3
X185.65Y-138.3
X185.85Y-128.7
X185.85Y-136.9
X185.85Y-139.9
X186.05Y-130.5
X186.25Y-106.1
X186.25Y-111.7
X186.345Y-109.395
X187.4Y-82.7
X188.412Y-106.337
X190.65Y-120.9
X191.025Y-54.825
X191.63Y-55.43
X191.65Y-125.9
X192.05Y-112.7
X192.25Y-109.1
X193.05Y-107.5
X194.65Y-70.95
X194.65Y-80.95
X195.4Y-70.95
X195.4Y-80.95
X196.15Y-70.95
X196.15Y-80.95
T2
X107.701Y-112.34
X108.903Y-113.542
T4
X180.65Y-83.5
X180.65Y-86.04
X180.65Y-91.12
X180.65Y-93.66
X180.65Y-96.2
T5
X171.31Y-99.3
X172.58Y-98.03
X173.85Y-99.3
T6
X108.15Y-66.95
X108.15Y-69.45
X127.4Y-66.95
X127.4Y-69.45
X137.4Y-56.2
X137.4Y-58.7
X137.4Y-63.45
X137.4Y-65.95
X174.25Y-72.7
X176.75Y-72.7
X184.15Y-88.2
X184.15Y-103.44
X185.85Y-116.4
X185.85Y-118.9
X187.9Y-88.21
X187.9Y-103.45
X193.15Y-94.2
X193.15Y-96.7
X198.4Y-88.21
X198.4Y-103.45
X198.65Y-109.08
X198.65Y-124.32
T7
X187.9Y-132.56
X187.9Y-135.1
T8
X92.25Y-79.26
X92.25Y-81.8
X92.25Y-84.34
X102.9Y-104.86
X102.9Y-107.4
X102.9Y-109.94
X114.35Y-129.78
X114.35Y-132.32
X114.35Y-134.86
X114.35Y-137.4
X118.35Y-129.78
X118.35Y-132.32
X118.35Y-134.86
X118.35Y-137.4
X139.15Y-92.62
X139.15Y-95.16
X139.15Y-97.7
X151.295Y-138.25
X151.295Y-142.05
X153.53Y-85.2
X153.835Y-138.25
X153.835Y-142.05
X156.07Y-85.2
X156.375Y-138.25
X156.375Y-142.05
X157.57Y-79.45
X158.61Y-85.2
X160.11Y-79.45
X161.15Y-85.2
X162.65Y-79.45
X168.85Y-79.45
X171.39Y-79.45
X172.85Y-89.22
X172.85Y-91.76
X172.85Y-94.3
X173.93Y-79.45
T9
X195.05Y-111.22
X195.05Y-121.38
X198.4Y-91.12
X198.4Y-101.28
X198.65Y-111.62
X198.65Y-121.78
T10
X93.06Y-129.44
X93.06Y-142.14
X94.11Y-93.69
X94.11Y-96.23
X94.11Y-98.77
X94.11Y-101.31
X94.11Y-103.85
X94.11Y-106.39
X94.11Y-108.93
X94.11Y-111.47
X94.11Y-114.01
X94.11Y-116.55
X95.6Y-129.44
X95.6Y-142.14
X96.65Y-93.69
X96.65Y-96.23
X96.65Y-98.77
X96.65Y-101.31
X96.65Y-103.85
X96.65Y-106.39
X96.65Y-108.93
X96.65Y-111.47
X96.65Y-114.01
X96.65Y-116.55
X98.14Y-129.44
X98.14Y-142.14
X100.68Y-129.44
X100.68Y-142.14
X103.22Y-129.44
X103.22Y-142.14
X105.76Y-129.44
X105.76Y-142.14
X108.3Y-129.44
X108.3Y-142.14
X110.84Y-129.44
X110.84Y-142.14
X122.15Y-129.3
X122.15Y-142.0
X124.69Y-129.3
X124.69Y-142.0
X127.23Y-129.3
X127.23Y-142.0
X129.77Y-129.3
X129.77Y-142.0
X132.18Y-117.95
X132.18Y-120.49
X132.18Y-123.03
X132.18Y-125.57
X132.31Y-129.3
X132.31Y-142.0
X134.85Y-129.3
X134.85Y-142.0
X137.39Y-129.3
X137.39Y-142.0
X139.8Y-117.95
X139.8Y-120.49
X139.8Y-123.03
X139.8Y-125.57
X139.93Y-129.3
X139.93Y-142.0
X146.002Y-90.46
X146.002Y-93.0
X146.002Y-95.54
X146.002Y-98.08
X146.002Y-100.62
X146.002Y-103.16
X146.002Y-105.7
X146.002Y-108.24
X146.002Y-110.78
X163.782Y-90.46
X163.782Y-93.0
X163.782Y-95.54
X163.782Y-98.08
X163.782Y-100.62
X163.782Y-103.16
X163.782Y-105.7
X163.782Y-108.24
X163.782Y-110.78
T11
X192.98Y-130.02
X192.98Y-140.18
T3
G00X192.6Y-54.31
M15
G01X193.7Y-54.31
M16
G05
G00X192.6Y-62.95
M15
G01X193.7Y-62.95
M16
G05
G00X196.93Y-54.31
M15
G01X197.73Y-54.31
M16
G05
G00X196.93Y-62.95
M15
G01X197.73Y-62.95
M16
G05
T8
G00X98.4Y-57.1
M15
G01X98.4Y-59.3
M16
G05
G00X102.9Y-63.0
M15
G01X100.7Y-63.0
M16
G05
G00X104.7Y-56.9
M15
G01X104.7Y-59.5
M16
G05
M30
